<?xml version="1.0" encoding="UTF-8"?>
<svg viewBox="0 0 671.4375 980.86102" xmlns="http://www.w3.org/2000/svg" xmlns:xlink="http://www.w3.org/1999/xlink">
 <defs>
  <linearGradient id="a">
   <stop stop-color="#fff" offset="0"/>
   <stop stop-color="#d3d7cf" offset=".48906"/>
   <stop stop-color="#00484d" offset="1"/>
  </linearGradient>
  <linearGradient id="d" x1="330.23" x2="351.66" y1="627.51" y2="926.93" gradientUnits="userSpaceOnUse">
   <stop stop-color="#fff" offset="0"/>
   <stop stop-color="#d3d7cf" offset=".69438"/>
   <stop stop-color="#00484d" offset="1"/>
  </linearGradient>
  <linearGradient id="b" x1="297.95" x2="351.67" y1="-33.924" y2="618.08" gradientUnits="userSpaceOnUse">
   <stop stop-color="#00a7b3" offset="0"/>
   <stop stop-color="#00484d" offset="1"/>
  </linearGradient>
  <linearGradient id="e" x1="351.43" x2="416.86" y1="349.51" y2="696.93" gradientTransform="matrix(-1 0 0 1 724.52 29.429)" gradientUnits="userSpaceOnUse" xlink:href="#a"/>
  <linearGradient id="c" x2="0" y1="884.11" y2="1082.1" gradientUnits="userSpaceOnUse" xlink:href="#a"/>
 </defs>
 <g transform="matrix(1 0 0 -1 -15.954 1018.9)">
  <path d="m21.986 38.076h659.37a6.0317 6.0317 0 0 1 6.0317 6.0317v967.94a6.0317 6.0317 0 0 1 -6.0317 6.0317h-659.37a6.0317 6.0317 0 0 1 -6.0317 -6.0317v-967.94a6.0317 6.0317 0 0 1 6.0317 -6.0317" fill="url(#b)"/>
  <path d="m523.49 278.75c-31.136 0-57.482 20.043-66.375 47.688-19.842-17.912-46.334-28.844-75.438-28.844-58.175 0-105.95 43.722-111 99.469-17.375 0.93748-33.478 6.5032-47.094 15.438-23.865-46.979-73.332-79.281-130.5-79.281-28.328 0-54.753 7.9412-77.125 21.656v383.69c23.898 19.837 54.802 31.812 88.563 31.812 40.286 0 76.503-17.039 101.59-44.156 22.224 15.214 49.244 24.156 78.406 24.156 44.234 0 83.578-20.533 108.66-52.406 13.462 4.3293 27.843 6.6875 42.781 6.6875 20.084 0 39.154-4.2388 56.344-11.844 24.655 23.262 58.143 37.562 95.062 37.562 39.43 0 74.979-16.315 100-42.438v-298.06c-8.2698-2.4232-17.02-3.7188-26.094-3.7188-5.9948 0-11.859 0.57311-17.531 1.6562-4.1738-24.214-25.137-42.821-50.75-43.906-1.6403-36.258-32.112-65.156-69.5-65.156z" fill="url(#e)"/>
  <path d="m321.64 546.16c-38.761 0-72.882 19.404-92.844 48.844-13.87-7.8677-29.98-12.375-47.156-12.375-42.78 0-78.875 27.942-90.406 66.219-14.183-8.9444-31.071-14.125-49.188-14.125-9.0734 0-17.824 1.2955-26.094 3.7188v298.06c25.021 26.123 60.57 42.438 100 42.438 36.919 0 70.408-14.301 95.062-37.562 17.19 7.6049 36.26 11.844 56.344 11.844 14.939 0 29.319-2.3582 42.781-6.6875 25.078 31.873 64.422 52.406 108.66 52.406 29.162 0 56.182-8.9426 78.406-24.156 25.091 27.117 61.308 44.156 101.59 44.156 33.761 0 64.665-11.975 88.562-31.812v-383.69c-22.372-13.715-48.797-21.656-77.125-21.656-57.168 0-106.63 32.303-130.5 79.281-13.616-8.9343-29.718-14.5-47.094-15.438-5.05-55.747-52.825-99.469-111-99.469z" fill="url(#d)"/>
  <path d="m687.36 751.88c-58.991 5.9866-106.88 48.642-119.56 104.31-7.5842-1.1945-15.354-1.8438-23.281-1.8438-65.162 0-120.33 41.937-138.97 99.781-6.3532-2.0585-13.004-3.4654-19.875-4.1562 1.1214-6.2177 1.6875-12.592 1.6875-19.125 0-60.334-49.866-109.25-111.41-109.25-58.148 0-105.91 43.665-111 99.375-1.0965-0.037-2.2068-0.0625-3.3125-0.0625-11.91 0-23.29 2.1746-33.781 6.125-16.669-20.722-42.524-34.031-71.531-34.031-14.502 0-28.207 3.3349-40.375 9.25v108.06c0 3.3416 2.6897 6.0313 6.0312 6.0313h659.34c3.3416 0 6.0312-2.6897 6.0312-6.0313v-258.44z" fill="url(#c)"/>
  <path transform="matrix(1 0 0 -1 15.954 1019)" d="m20 0.875 2.75 35.688c0.16716 2.1685 1.1715 3.8331 2.25 3.75s1.7922-1.894 1.625-4.0625l-2.7188-35.375h-3.9062zm22.688 0 1.3125 17.031c0.16716 2.1685 1.1715 3.8331 2.25 3.75s1.7922-1.894 1.625-4.0625l-1.2812-16.719h-3.9062zm19.438 0 1.1875 15.531c0.16716 2.1685 1.1715 3.8331 2.25 3.75s1.8234-1.894 1.6562-4.0625l-1.1875-15.219h-3.9062zm22.688 0 2.375 30.719c0.16716 2.1685 1.1715 3.8331 2.25 3.75s1.7922-1.894 1.625-4.0625l-2.3438-30.406h-3.9062zm107.16 0 5.5312 71.688c0.16716 2.1685 1.1715 3.8331 2.25 3.75s1.8234-1.894 1.6562-4.0625l-5.5312-71.375h-3.9062zm22.688 0 4.0938 53.031c0.16716 2.1685 1.1715 3.8331 2.25 3.75s1.8234-1.894 1.6562-4.0625l-4.0625-52.719h-3.9375zm17.438 0 5.2812 68.625c0.16716 2.1685 1.1715 3.8331 2.25 3.75s1.8234-1.894 1.6562-4.0625l-5.25-68.312h-3.9375zm22.688 0 3.8438 49.938c0.16716 2.1685 1.1715 3.8644 2.25 3.7812s1.8234-1.894 1.6562-4.0625l-3.8125-49.656h-3.9375zm17.25 0c-1.0065 0.19656-1.6988 1.7008-1.5625 3.4688l5.1875 67.312c0.14221 1.8448 1.1402 3.2706 2.2188 3.1875s1.8297-1.6552 1.6875-3.5l-5.1875-67.312c-0.12443-1.6142-0.89699-2.9138-1.8125-3.1562h-0.53125zm20.844 0 4.0312 52.125c0.14221 1.8448 1.1402 3.2706 2.2188 3.1875s1.8297-1.6552 1.6875-3.5l-4-51.812h-3.9375zm19.438 0 3.9062 50.625c0.14221 1.8448 1.1402 3.2706 2.2188 3.1875s1.8297-1.6239 1.6875-3.4688l-3.875-50.344h-3.9375zm22.719 0 5.0625 65.812c0.14221 1.8448 1.1402 3.2706 2.2188 3.1875s1.8297-1.6552 1.6875-3.5l-5.0625-65.5h-3.9062zm15.406 0 3.2812 42.625c0.16716 2.1685 1.1715 3.8331 2.25 3.75s1.8234-1.894 1.6562-4.0625l-3.25-42.312h-3.9375zm22.719 0 4.4375 57.812c0.16716 2.1685 1.1715 3.8331 2.25 3.75s1.8234-1.894 1.6562-4.0625l-4.4375-57.5h-3.9062zm17.406 0 3.0625 39.531c0.16716 2.1685 1.1402 3.8644 2.2188 3.7812s1.8234-1.894 1.6562-4.0625l-3.0312-39.25h-3.9062zm22.688 0 4.2188 54.719c0.16716 2.1685 1.1715 3.8644 2.25 3.7812s1.8234-1.894 1.6562-4.0625l-4.1875-54.438h-3.9375zm22.406 0 2.25 29.25c0.16716 2.1685 1.1715 3.8644 2.25 3.7812s1.8234-1.894 1.6562-4.0625l-2.2188-28.969h-3.9375zm22.719 0 0.8125 10.594c0.16716 2.1685 1.1402 3.8644 2.2188 3.7812s1.8234-1.894 1.6562-4.0625l-0.78125-10.312h-3.9062zm17.406 0 2.0312 26.188c0.16716 2.1685 1.1402 3.8331 2.2188 3.75s1.8234-1.894 1.6562-4.0625l-2-25.875h-3.9062zm22.688 0 0.59375 7.5312c0.16716 2.1685 1.1715 3.8331 2.25 3.75s1.7922-1.894 1.625-4.0625l-0.5625-7.2188h-3.9062zm15.406 0 2.1875 28.344c0.14221 1.8448 1.1402 3.2706 2.2188 3.1875s1.8297-1.6239 1.6875-3.4688l-2.1562-28.062h-3.9375zm22.719 0 0.75 9.6875c0.14221 1.8448 1.109 3.2706 2.1875 3.1875s1.8297-1.6239 1.6875-3.4688l-0.71875-9.4062h-3.9062zm19.438 0 0.625 8.2188c0.14221 1.8448 1.109 3.2394 2.1875 3.1562s1.8297-1.6239 1.6875-3.4688l-0.59375-7.9062h-3.9062zm22.656 0 1.8125 23.375c0.14221 1.8448 1.1402 3.2706 2.2188 3.1875s1.8297-1.6239 1.6875-3.4688l-1.7812-23.094h-3.9375zm15.469 0v0.1875c0.16716 2.1685 1.1715 3.8644 2.25 3.7812 1.0624-0.0819 1.7638-1.8436 1.625-3.9688h-3.875zm22.656 0 1.1875 15.375c0.16716 2.1685 1.1715 3.8331 2.25 3.75s1.8234-1.894 1.6562-4.0625l-1.1562-15.062h-3.9375zm18.125 0c0.38745 0.5653 0.85458 0.91271 1.3438 0.875 0.43816-0.03378 0.81063-0.3628 1.0938-0.875h-2.4375zm22.031 0 0.9375 12.312c0.16716 2.1685 1.1402 3.8331 2.2188 3.75s1.8234-1.894 1.6562-4.0625l-0.9375-12h-3.875zm-513.88 10.094c-1.0785 0.08314-1.8234 1.894-1.6562 4.0625l6.0938 79.125c0.16716 2.1685 1.1715 3.8644 2.25 3.7812s1.8234-1.894 1.6562-4.0625l-6.0938-79.156c-0.16716-2.1685-1.1715-3.8331-2.25-3.75zm-39.906 3.0625c-1.0785 0.08314-1.7922 1.894-1.625 4.0625l6.0938 79.156c0.16716 2.1685 1.1715 3.8331 2.25 3.75s1.8234-1.894 1.6562-4.0625l-6.125-79.125c-0.16716-2.1685-1.1715-3.8644-2.25-3.7812zm534.19 2c-1.0785 0.08314-1.8297 1.6239-1.6875 3.4688l5.1875 67.344c0.14221 1.8448 1.1402 3.2394 2.2188 3.1562s1.8297-1.6239 1.6875-3.4688l-5.1875-67.312c-0.14221-1.8448-1.1402-3.2706-2.2188-3.1875zm-39.875 3.0938c-1.0785 0.08314-1.8297 1.6239-1.6875 3.4688l5.1875 67.312c0.14221 1.8448 1.109 3.2706 2.1875 3.1875s1.8297-1.6552 1.6875-3.5l-5.1875-67.312c-0.14221-1.8448-1.109-3.2394-2.1875-3.1562zm-589.38 2.25c-1.0785 0.08314-1.8234 1.894-1.6562 4.0625l6.0938 79.125c0.16716 2.1685 1.1715 3.8644 2.25 3.7812s1.8234-1.9253 1.6562-4.0938l-6.125-79.125c-0.16716-2.1685-1.1402-3.8331-2.2188-3.75zm158.81 4.7812c-1.0785 0.08314-1.7922 1.894-1.625 4.0625l6.0938 79.125c0.16716 2.1685 1.1715 3.8331 2.25 3.75s1.7922-1.894 1.625-4.0625l-6.0938-79.125c-0.16716-2.1685-1.1715-3.8331-2.25-3.75zm335.47 0.28125c-1.0785 0.08314-1.8297 1.6239-1.6875 3.4688l5.1875 67.344c0.14221 1.8448 1.109 3.2394 2.1875 3.1562s1.8297-1.6239 1.6875-3.4688l-5.1875-67.312c-0.14221-1.8448-1.109-3.2706-2.1875-3.1875zm-375.34 2.7812c-1.0785 0.08314-1.8234 1.894-1.6562 4.0625l6.125 79.125c0.16716 2.1685 1.1715 3.8644 2.25 3.7812s1.7922-1.894 1.625-4.0625l-6.0938-79.125c-0.16716-2.1685-1.1715-3.8644-2.25-3.7812zm335.47 0.28125c-1.0785 0.08314-1.8297 1.6552-1.6875 3.5l5.1875 67.312c0.14221 1.8448 1.109 3.2706 2.1875 3.1875s1.8297-1.6552 1.6875-3.5l-5.1875-67.312c-0.14221-1.8448-1.109-3.2706-2.1875-3.1875zm198.72 1.7188c-1.0785 0.08314-1.8297 1.6239-1.6875 3.4688l5.1875 67.344c0.14221 1.8448 1.109 3.2394 2.1875 3.1562s1.8297-1.6239 1.6875-3.4688l-5.1875-67.312c-0.14221-1.8448-1.109-3.2706-2.1875-3.1875zm-39.906 3.0625c-1.0785 0.08314-1.8297 1.6552-1.6875 3.5l5.1875 67.312c0.14221 1.8448 1.1402 3.2706 2.2188 3.1875s1.8297-1.6552 1.6875-3.5l-5.1875-67.312c-0.14221-1.8448-1.1402-3.2706-2.2188-3.1875zm-554.69 0.15625c-1.0785 0.08314-1.8297 1.6552-1.6875 3.5l5.1875 67.312c0.14221 1.8448 1.1402 3.2706 2.2188 3.1875s1.8297-1.6552 1.6875-3.5l-5.1875-67.312c-0.14221-1.8448-1.1402-3.2706-2.2188-3.1875zm-19.312 1.5c-1.0785 0.08314-1.8297 1.6239-1.6875 3.4688l5.1875 67.312c0.14221 1.8448 1.1402 3.2706 2.2188 3.1875s1.8297-1.6239 1.6875-3.4688l-5.1875-67.312c-0.14221-1.8448-1.1402-3.2706-2.2188-3.1875zm514 8.7812c-1.0785 0.08314-1.8287 1.6063-1.6875 3.4375l5.1562 66.812c0.14116 1.8312 1.109 3.2394 2.1875 3.1562s1.8599-1.6063 1.7188-3.4375l-5.1562-66.812c-0.14116-1.8312-1.1402-3.2394-2.2188-3.1562zm-80.188 0.375c-1.0785 0.08314-1.8297 1.6552-1.6875 3.5l5.1875 67.312c0.14221 1.8448 1.109 3.2706 2.1875 3.1875s1.8297-1.6552 1.6875-3.5l-5.1875-67.312c-0.14221-1.8448-1.109-3.2706-2.1875-3.1875zm60.875 1.0938c-1.0785 0.08314-1.8287 1.6376-1.6875 3.4688l5.1562 66.812c0.14116 1.8312 1.109 3.2394 2.1875 3.1562s1.8599-1.6376 1.7188-3.4688l-5.1562-66.812c-0.14116-1.8312-1.1402-3.2394-2.2188-3.1562zm-100.78 2c-1.0785 0.08314-1.8297 1.6239-1.6875 3.4688l5.1875 67.312c0.14221 1.8448 1.1402 3.2706 2.2188 3.1875s1.8297-1.6239 1.6875-3.4688l-5.1875-67.344c-0.14221-1.8448-1.1402-3.2394-2.2188-3.1562zm-350.72 1.4375c-1.0785 0.08314-1.8297 1.6239-1.6875 3.4688l5.1875 67.344c0.14221 1.8448 1.109 3.2394 2.1875 3.1562s1.8297-1.6239 1.6875-3.4688l-5.1875-67.312c-0.14221-1.8448-1.109-3.2706-2.1875-3.1875zm-64.438 4.9688c-1.0785 0.08314-1.8297 1.6239-1.6875 3.4688l5.1875 67.344c0.14221 1.8448 1.109 3.2394 2.1875 3.1562s1.8297-1.6239 1.6875-3.4688l-5.1875-67.312c-0.14221-1.8448-1.109-3.2706-2.1875-3.1875zm370.88 3.875c-1.0785 0.08314-1.8297 1.6239-1.6875 3.4688l5.1875 67.312c0.14221 1.8448 1.109 3.2706 2.1875 3.1875s1.8297-1.6239 1.6875-3.4688l-5.1875-67.312c-0.14221-1.8448-1.109-3.2706-2.1875-3.1875zm188.25 1.4062c-1.0785 0.08314-1.8287 1.6376-1.6875 3.4688l5.1562 66.812c0.14116 1.8312 1.109 3.2394 2.1875 3.1562s1.8287-1.6063 1.6875-3.4375l-5.1562-66.844c-0.14116-1.8312-1.109-3.2394-2.1875-3.1562zm-228.16 1.6562c-1.0785 0.08314-1.8297 1.6552-1.6875 3.5l5.1875 67.312c0.14221 1.8448 1.1402 3.2394 2.2188 3.1562s1.8297-1.6239 1.6875-3.4688l-5.1875-67.312c-0.14221-1.8448-1.1402-3.2706-2.2188-3.1875zm163.72 3.3125c-1.0785 0.08314-1.8287 1.6376-1.6875 3.4688l5.1562 66.812c0.14116 1.8312 1.109 3.2394 2.1875 3.1562s1.8287-1.6063 1.6875-3.4375l-5.125-66.844c-0.14116-1.8312-1.1402-3.2394-2.2188-3.1562zm-258.78 4.0312c-1.0785 0.08314-1.861 1.6239-1.7188 3.4688l5.2188 67.312c0.14221 1.8448 1.109 3.2706 2.1875 3.1875s1.8297-1.6239 1.6875-3.4688l-5.1875-67.344c-0.14221-1.8448-1.109-3.2394-2.1875-3.1562zm-39.906 3.0625c-1.0785 0.08314-1.8297 1.6239-1.6875 3.4688l5.1875 67.344c0.14221 1.8448 1.1402 3.2394 2.2188 3.1562s1.8297-1.6239 1.6875-3.4688l-5.1875-67.312c-0.14221-1.8448-1.1402-3.2706-2.2188-3.1875zm198.72 1.7188c-1.0785 0.08314-1.8297 1.6239-1.6875 3.4688l5.1875 67.312c0.14221 1.8448 1.1402 3.2706 2.2188 3.1875s1.8297-1.6239 1.6875-3.4688l-5.1875-67.344c-0.14221-1.8448-1.1402-3.2394-2.2188-3.1562zm-39.875 3.0625c-1.0785 0.08314-1.8297 1.6239-1.6875 3.4688l5.1875 67.344c0.14221 1.8448 1.1402 3.2394 2.2188 3.1562s1.8297-1.6239 1.6875-3.4688l-5.1875-67.312c-0.14221-1.8448-1.1402-3.2706-2.2188-3.1875zm-60 10.406c-1.0785 0.08314-1.8287 1.6376-1.6875 3.4688l5.1562 66.812c0.14116 1.8312 1.109 3.2394 2.1875 3.1562s1.8287-1.6376 1.6875-3.4688l-5.1562-66.812c-0.14116-1.8312-1.109-3.2394-2.1875-3.1562zm-80.219 0.40625c-1.0785 0.08314-1.8297 1.6239-1.6875 3.4688l5.1875 67.312c0.14221 1.8448 1.1402 3.2706 2.2188 3.1875s1.8297-1.6239 1.6875-3.4688l-5.1875-67.312c-0.14221-1.8448-1.1402-3.2706-2.2188-3.1875zm60.906 1.0938c-1.0785 0.08314-1.8287 1.6063-1.6875 3.4375l5.1562 66.844c0.14116 1.8312 1.109 3.2394 2.1875 3.1562s1.8287-1.6376 1.6875-3.4688l-5.1562-66.812c-0.14116-1.8312-1.109-3.2394-2.1875-3.1562zm-100.78 1.9688c-1.0785 0.08314-1.8297 1.6552-1.6875 3.5l5.1875 67.312c0.14221 1.8448 1.1402 3.2706 2.2188 3.1875s1.8297-1.6552 1.6875-3.5l-5.1875-67.312c-0.14221-1.8448-1.1402-3.2706-2.2188-3.1875zm143.97 11.719c-1.0785 0.0831-1.8287 1.6376-1.6875 3.4688l5.125 66.812c0.14116 1.8312 1.1402 3.2394 2.2188 3.1562s1.8287-1.6376 1.6875-3.4688l-5.1562-66.812c-0.14116-1.8312-1.109-3.2394-2.1875-3.1562zm-64.438 4.9688c-1.0785 0.0831-1.8287 1.6376-1.6875 3.4688l5.125 66.812c0.14116 1.8312 1.1402 3.2394 2.2188 3.1562s1.8287-1.6376 1.6875-3.4688l-5.1562-66.812c-0.14116-1.8312-1.109-3.2394-2.1875-3.1562zm-129.5 4.9062c-1.0785 0.0831-1.8297 1.6552-1.6875 3.5l5.1875 67.312c0.14221 1.8448 1.1402 3.2706 2.2188 3.1875s1.8297-1.6552 1.6875-3.5l-5.1875-67.312c-0.14221-1.8448-1.1402-3.2706-2.2188-3.1875zm-39.875 3.0938c-1.0785 0.0831-1.8297 1.6239-1.6875 3.4688l5.1875 67.312c0.14221 1.8448 1.1402 3.2706 2.2188 3.1875s1.8297-1.6239 1.6875-3.4688l-5.1875-67.312c-0.14221-1.8448-1.1402-3.2706-2.2188-3.1875zm534.59 7.1875c-1.0785 0.0831-1.8599 1.6063-1.7188 3.4375l5.1562 66.844c0.14116 1.8312 1.1402 3.2394 2.2188 3.1562s1.8287-1.6376 1.6875-3.4688l-5.1562-66.812c-0.14116-1.8312-1.109-3.2394-2.1875-3.1562zm-629.69 0.125c-1.0785 0.0831-1.8297 1.6552-1.6875 3.5l5.1875 67.312c0.14221 1.8448 1.1402 3.2706 2.2188 3.1875s1.8297-1.6552 1.6875-3.5l-5.1875-67.312c-0.14221-1.8448-1.1402-3.2706-2.2188-3.1875zm589.78 2.9375c-1.0785 0.08314-1.8287 1.6376-1.6875 3.4688l5.1562 66.812c0.14116 1.8312 1.109 3.2394 2.1875 3.1562s1.8599-1.6376 1.7188-3.4688l-5.1562-66.812c-0.14116-1.8312-1.1402-3.2394-2.2188-3.1562zm-430.94 1.8438c-1.0785 0.0831-1.8297 1.6552-1.6875 3.5l5.1875 67.312c0.14221 1.8448 1.1402 3.2706 2.2188 3.1875s1.8297-1.6552 1.6875-3.5l-5.1875-67.312c-0.14221-1.8448-1.1402-3.2706-2.2188-3.1875zm393.19 2.8125c-1.0785 0.0831-1.8388 1.4109-1.7188 2.9688l4.375 56.844c0.12009 1.5578 1.0777 2.7394 2.1562 2.6562s1.8701-1.4109 1.75-2.9688l-4.4062-56.844c-0.12009-1.5578-1.0777-2.7394-2.1562-2.6562zm-433.06 0.28125c-1.0785 0.0831-1.8297 1.6239-1.6875 3.4688l5.1875 67.312c0.14221 1.8448 1.109 3.2706 2.1875 3.1875s1.8297-1.6239 1.6875-3.4688l-5.1875-67.344c-0.14221-1.8448-1.109-3.2394-2.1875-3.1562zm413.75 1.2188c-1.0785 0.0831-1.8388 1.4109-1.7188 2.9688l4.375 56.844c0.12009 1.5578 1.0777 2.7394 2.1562 2.6562s1.8701-1.4109 1.75-2.9688l-4.4062-56.844c-0.12009-1.5578-1.0777-2.7394-2.1562-2.6562zm-38.031 1.1875c-1.0785 0.0831-1.8287 1.6063-1.6875 3.4375l5.1562 66.844c0.14116 1.8312 1.1402 3.2394 2.2188 3.1562s1.8287-1.6376 1.6875-3.4688l-5.1562-66.812c-0.14116-1.8312-1.1402-3.2394-2.2188-3.1562zm-39.875 3.0625c-1.0785 0.0831-1.8287 1.6376-1.6875 3.4688l5.1562 66.812c0.14116 1.8312 1.109 3.2394 2.1875 3.1562s1.8599-1.6376 1.7188-3.4688l-5.1562-66.812c-0.14116-1.8312-1.1402-3.2394-2.2188-3.1562zm198.72 1.7188c-1.0785 0.0831-1.8287 1.6063-1.6875 3.4375l3.6875 47.781v-49.219c-0.37805-1.2297-1.1641-2.0644-2-2zm-39.875 3.0625c-1.0785 0.0831-1.8287 1.6376-1.6875 3.4688l5.1562 66.812c0.14116 1.8312 1.109 3.2394 2.1875 3.1562s1.8287-1.6376 1.6875-3.4688l-5.1562-66.812c-0.14116-1.8312-1.109-3.2394-2.1875-3.1562zm-554.69 0.15625c-1.0785 0.0831-1.8287 1.6063-1.6875 3.4375l5.125 66.844c0.14116 1.8312 1.1402 3.2394 2.2188 3.1562s1.8287-1.6376 1.6875-3.4688l-5.1562-66.812c-0.14116-1.8312-1.109-3.2394-2.1875-3.1562zm-19.312 1.5c-1.0785 0.0831-1.8599 1.6063-1.7188 3.4375l5.1562 66.812c0.14116 1.8312 1.1402 3.2394 2.2188 3.1562s1.8287-1.6063 1.6875-3.4375l-5.1562-66.812c-0.14116-1.8312-1.109-3.2394-2.1875-3.1562zm536.25 3c-1.0785 0.0831-1.8388 1.4109-1.7188 2.9688l4.375 56.844c0.12009 1.5578 1.0777 2.7394 2.1562 2.6562s1.8388-1.4109 1.7188-2.9688l-4.375-56.844c-0.12009-1.5578-1.0777-2.7394-2.1562-2.6562zm-64.438 4.9688c-1.0785 0.0831-1.8388 1.4109-1.7188 2.9688l4.375 56.844c0.12009 1.5578 1.0777 2.7394 2.1562 2.6562s1.8388-1.4109 1.7188-2.9688l-4.375-56.844c-0.12009-1.5578-1.0777-2.7394-2.1562-2.6562zm-38.031 1.1875c-1.0785 0.0831-1.8287 1.6063-1.6875 3.4375l5.1562 66.844c0.14116 1.8312 1.109 3.2394 2.1875 3.1562s1.8599-1.6376 1.7188-3.4688l-5.1562-66.812c-0.14116-1.8312-1.1402-3.2394-2.2188-3.1562zm-39.875 3.0625c-1.0785 0.0831-1.8287 1.6376-1.6875 3.4688l5.1562 66.812c0.14116 1.8312 1.109 3.2394 2.1875 3.1562s1.8287-1.6376 1.6875-3.4688l-5.1562-66.812c-0.14116-1.8312-1.109-3.2394-2.1875-3.1562zm-350.75 1.4688c-1.0785 0.0831-1.8287 1.6063-1.6875 3.4375l5.1562 66.844c0.14116 1.8312 1.109 3.2081 2.1875 3.125s1.8599-1.6063 1.7188-3.4375l-5.1562-66.812c-0.14116-1.8312-1.1402-3.2394-2.2188-3.1562zm-64.438 4.9688c-1.0785 0.0831-1.8287 1.6063-1.6875 3.4375l5.1562 66.812c0.14116 1.8312 1.1402 3.2394 2.2188 3.1562s1.8287-1.6063 1.6875-3.4375l-5.1562-66.812c-0.14116-1.8312-1.1402-3.2394-2.2188-3.1562zm370.88 3.8438c-1.0785 0.0831-1.8287 1.6376-1.6875 3.4688l5.1562 66.812c0.14116 1.8312 1.109 3.2394 2.1875 3.1562s1.8599-1.6063 1.7188-3.4375l-5.1562-66.844c-0.14116-1.8312-1.1402-3.2394-2.2188-3.1562zm-39.875 3.0938c-1.0785 0.0831-1.8287 1.6063-1.6875 3.4375l5.1562 66.844c0.14116 1.8312 1.109 3.2394 2.1875 3.1562s1.8287-1.6376 1.6875-3.4688l-5.1562-66.812c-0.14116-1.8312-1.109-3.2394-2.1875-3.1562zm-37.75 4.6562c-1.0785 0.0831-1.8388 1.4109-1.7188 2.9688l4.375 56.844c0.12009 1.5578 1.0777 2.7394 2.1562 2.6562s1.8388-1.4109 1.7188-2.9688l-4.375-56.844c-0.12009-1.5578-1.0777-2.7394-2.1562-2.6562zm-19.312 1.4688c-1.0785 0.0831-1.8701 1.4109-1.75 2.9688l4.4062 56.844c0.12009 1.5578 1.0777 2.7706 2.1562 2.6875s1.8388-1.4109 1.7188-2.9688l-4.375-56.844c-0.12009-1.5578-1.0777-2.7706-2.1562-2.6875zm-38.031 1.1875c-1.0785 0.0831-1.8287 1.6376-1.6875 3.4688l5.1562 66.812c0.14116 1.8312 1.109 3.2394 2.1875 3.1562s1.8287-1.6063 1.6875-3.4375l-5.125-66.844c-0.14116-1.8312-1.1402-3.2394-2.2188-3.1562zm-39.875 3.0938c-1.0785 0.0831-1.8287 1.6063-1.6875 3.4375l5.1562 66.844c0.14116 1.8312 1.109 3.2394 2.1875 3.1562s1.8287-1.6376 1.6875-3.4688l-5.1562-66.812c-0.14116-1.8312-1.109-3.2394-2.1875-3.1562zm198.72 1.6875c-1.0785 0.0831-1.8287 1.6376-1.6875 3.4688l5.1562 66.812c0.14116 1.8312 1.109 3.2394 2.1875 3.1562s1.8287-1.6376 1.6875-3.4688l-5.1562-66.812c-0.14116-1.8312-1.109-3.2394-2.1875-3.1562zm-39.875 3.0938c-1.0785 0.0831-1.8287 1.6063-1.6875 3.4375l5.125 66.812c0.14116 1.8312 1.1402 3.2394 2.2188 3.1562s1.8287-1.6063 1.6875-3.4375l-5.1562-66.812c-0.14116-1.8312-1.109-3.2394-2.1875-3.1562zm-389.16 1.8438v30.219c0.12117 0.0289 0.25049 0.0409 0.375 0.0312 1.0785-0.0831 1.8297-1.6552 1.6875-3.5l-2.0625-26.75zm351.41 2.8125c-1.0785 0.0831-1.8701 1.3796-1.75 2.9375l4.375 56.875c0.12009 1.5578 1.109 2.7394 2.1875 2.6562s1.8388-1.4109 1.7188-2.9688l-4.375-56.844c-0.12009-1.5578-1.0777-2.7394-2.1562-2.6562zm-64.438 4.9688c-1.0785 0.0831-1.8701 1.3796-1.75 2.9375l4.375 56.844c0.12009 1.5578 1.109 2.7706 2.1875 2.6875s1.8388-1.4109 1.7188-2.9688l-4.375-56.844c-0.12009-1.5578-1.0777-2.7394-2.1562-2.6562zm-38.031 1.1562c-1.0785 0.0831-1.8287 1.6376-1.6875 3.4688l5.1562 66.812c0.14116 1.8312 1.109 3.2394 2.1875 3.1562s1.8287-1.6063 1.6875-3.4375l-5.1562-66.844c-0.14116-1.8312-1.109-3.2394-2.1875-3.1562zm-39.875 3.0938c-1.0785 0.0831-1.8287 1.6063-1.6875 3.4375l5.125 66.844c0.14116 1.8312 1.1402 3.2394 2.2188 3.1562s1.8287-1.6376 1.6875-3.4688l-5.1562-66.812c-0.14116-1.8312-1.109-3.2394-2.1875-3.1562zm443.09 10.906c-1.0785 0.0831-1.8388 1.4109-1.7188 2.9688l4.375 56.844c0.12009 1.5578 1.109 2.7394 2.1875 2.6562s1.8388-1.3796 1.7188-2.9375l-4.375-56.844c-0.12009-1.5578-1.109-2.7706-2.1875-2.6875zm-39.875 3.0938c-1.0785 0.0831-1.8388 1.4109-1.7188 2.9688l4.375 56.844c0.12009 1.5578 1.0777 2.7394 2.1562 2.6562s1.8701-1.4109 1.75-2.9688l-4.4062-56.844c-0.12009-1.5578-1.0777-2.7394-2.1562-2.6562zm-95.094 7.3125c-1.0785 0.0831-1.8388 1.4109-1.7188 2.9688l4.375 56.844c0.12009 1.5578 1.0777 2.7394 2.1562 2.6562s1.8701-1.3796 1.75-2.9375l-4.375-56.875c-0.12009-1.5578-1.109-2.7394-2.1875-2.6562zm-358.09 0.28125c-1.0785 0.0831-1.8287 1.6376-1.6875 3.4688l5.1562 66.812c0.14116 1.8312 1.109 3.2394 2.1875 3.1562s1.8287-1.6376 1.6875-3.4688l-5.1562-66.812c-0.14116-1.8312-1.109-3.2394-2.1875-3.1562zm318.22 2.8125c-1.0785 0.0831-1.8388 1.3796-1.7188 2.9375l4.375 56.875c0.12009 1.5578 1.0777 2.7394 2.1562 2.6562s1.8701-1.4109 1.75-2.9688l-4.4062-56.844c-0.12009-1.5578-1.0777-2.7394-2.1562-2.6562zm-358.09 0.25c-1.0785 0.0831-1.8287 1.6376-1.6875 3.4688l5.125 66.812c0.14116 1.8312 1.1402 3.2394 2.2188 3.1562s1.8287-1.6063 1.6875-3.4375l-5.1562-66.844c-0.14116-1.8312-1.109-3.2394-2.1875-3.1562zm516.94 4.5312c-1.0785 0.0831-1.8388 1.3796-1.7188 2.9375l4.375 56.844c0.12009 1.5578 1.0777 2.7706 2.1562 2.6875s1.8388-1.4109 1.7188-2.9688l-4.375-56.844c-0.12009-1.5578-1.0777-2.7394-2.1562-2.6562zm-554.69 0.125c-1.0785 0.0831-1.8701 1.4109-1.75 2.9688l4.375 56.844c0.12009 1.5578 1.109 2.7706 2.1875 2.6875s1.8388-1.4109 1.7188-2.9688l-4.375-56.844c-0.12009-1.5578-1.0777-2.7706-2.1562-2.6875zm-19.344 1.5c-1.0785 0.0831-1.8388 1.4109-1.7188 2.9688l4.375 56.844c0.12009 1.5578 1.109 2.7394 2.1875 2.6562s1.8388-1.4109 1.7188-2.9688l-4.375-56.844c-0.12009-1.5578-1.109-2.7394-2.1875-2.6562zm-38 1.1875c-1.0785 0.0831-1.8287 1.6376-1.6875 3.4688l5.125 66.812c0.14116 1.8312 1.1402 3.2394 2.2188 3.1562s1.8287-1.6376 1.6875-3.4688l-5.1562-66.812c-0.14116-1.8312-1.109-3.2394-2.1875-3.1562zm158.84 4.7812c-1.0785 0.0831-1.8599 1.6063-1.7188 3.4375l5.1562 66.844c0.14116 1.8312 1.1402 3.2394 2.2188 3.1562s1.8287-1.6376 1.6875-3.4688l-5.1562-66.812c-0.14116-1.8312-1.109-3.2394-2.1875-3.1562zm-39.906 3.0625c-1.0785 0.0831-1.8287 1.6376-1.6875 3.4688l5.1562 66.812c0.14116 1.8312 1.109 3.2394 2.1875 3.1562s1.8599-1.6063 1.7188-3.4375l-5.1562-66.844c-0.14116-1.8312-1.1402-3.2394-2.2188-3.1562zm352.88 0.125c-1.0785 0.0831-1.8388 1.4109-1.7188 2.9688l4.375 56.844c0.12009 1.5578 1.0777 2.7706 2.1562 2.6875s1.8701-1.4109 1.75-2.9688l-4.4062-56.844c-0.12009-1.5578-1.0777-2.7706-2.1562-2.6875zm103.09 2c-1.0785 0.0831-1.841 1.4141-1.7188 3l4.4375 57.875c0.12225 1.5859 1.109 2.8019 2.1875 2.7188s1.841-1.4454 1.7188-3.0312l-4.4688-57.844c-0.12225-1.5859-1.0777-2.8019-2.1562-2.7188zm-142.97 1.0938c-1.0785 0.0831-1.8388 1.4109-1.7188 2.9688l4.375 56.844c0.12009 1.5578 1.0777 2.7394 2.1562 2.6562s1.8388-1.4109 1.7188-2.9688l-4.375-56.844c-0.12009-1.5578-1.0777-2.7394-2.1562-2.6562zm-350.75 1.4375c-1.0785 0.0831-1.8388 1.4109-1.7188 2.9688l4.375 56.844c0.12009 1.5578 1.0777 2.7394 2.1562 2.6562s1.8701-1.3796 1.75-2.9375l-4.4062-56.875c-0.12009-1.5578-1.0777-2.7394-2.1562-2.6562zm429.28 2.4375c-1.0785 0.0831-1.841 1.4141-1.7188 3l4.4375 57.875c0.12225 1.5859 1.109 2.8019 2.1875 2.7188s1.841-1.4454 1.7188-3.0312l-4.4688-57.844c-0.12225-1.5859-1.0777-2.8019-2.1562-2.7188zm-493.72 2.5312c-1.0785 0.0831-1.8388 1.4109-1.7188 2.9688l4.375 56.844c0.12009 1.5578 1.0777 2.7394 2.1562 2.6562s1.8701-1.3796 1.75-2.9375l-4.375-56.875c-0.12009-1.5578-1.109-2.7394-2.1875-2.6562zm-38 1.1875c-1.0785 0.0831-1.8599 1.6376-1.7188 3.4688l5.1562 66.812c0.14116 1.8312 1.1402 3.2394 2.2188 3.1562s1.8287-1.6376 1.6875-3.4688l-5.1562-66.812c-0.14116-1.8312-1.109-3.2394-2.1875-3.1562zm408.88 2.6875c-1.0785 0.0831-1.8388 1.4109-1.7188 2.9688l4.375 56.844c0.12009 1.5578 1.0777 2.7394 2.1562 2.6562s1.8701-1.4109 1.75-2.9688l-4.4062-56.844c-0.12009-1.5578-1.0777-2.7394-2.1562-2.6562zm-39.875 3.0625c-1.0785 0.0831-1.8388 1.4109-1.7188 2.9688l4.375 56.844c0.12009 1.5578 1.0777 2.7394 2.1562 2.6562s1.8388-1.3796 1.7188-2.9375l-4.375-56.844c-0.12009-1.5578-1.0777-2.7706-2.1562-2.6875zm-95.094 7.3438c-1.0785 0.0831-1.8388 1.4109-1.7188 2.9688l4.375 56.844c0.12009 1.5578 1.0777 2.7394 2.1562 2.6562s1.8388-1.4109 1.7188-2.9688l-4.375-56.844c-0.12009-1.5578-1.0777-2.7394-2.1562-2.6562zm-39.875 3.0625c-1.0785 0.0831-1.8701 1.4109-1.75 2.9688l4.4062 56.844c0.12009 1.5578 1.0777 2.7394 2.1562 2.6562s1.8388-1.3796 1.7188-2.9375l-4.375-56.844c-0.12009-1.5578-1.0777-2.7706-2.1562-2.6875zm198.72 1.7188c-1.0785 0.0831-1.8701 1.4109-1.75 2.9688l4.4062 56.844c0.12009 1.5578 1.0777 2.7394 2.1562 2.6562s1.8388-1.4109 1.7188-2.9688l-4.375-56.844c-0.12009-1.5578-1.0777-2.7394-2.1562-2.6562zm-39.875 3.0625c-1.0785 0.0831-1.8701 1.4109-1.75 2.9688l4.375 56.844c0.12009 1.5578 1.109 2.7394 2.1875 2.6562s1.8388-1.4109 1.7188-2.9688l-4.375-56.844c-0.12009-1.5578-1.0777-2.7394-2.1562-2.6562zm-140.22 10.812c-1.0785 0.0831-1.8701 1.4109-1.75 2.9688l4.4062 56.844c0.12009 1.5578 1.0777 2.7394 2.1562 2.6562s1.8388-1.4109 1.7188-2.9688l-4.375-56.844c-0.12009-1.5578-1.0777-2.7394-2.1562-2.6562zm103.09 1.9688c-1.0785 0.0831-1.8722 1.4454-1.75 3.0312l4.4688 57.875c0.12225 1.5859 1.0777 2.8019 2.1562 2.7188s1.8722-1.4454 1.75-3.0312l-4.4688-57.875c-0.12225-1.5859-1.0777-2.8019-2.1562-2.7188zm-142.97 1.0938c-1.0785 0.0831-1.8701 1.4109-1.75 2.9688l4.375 56.844c0.12009 1.5578 1.109 2.7706 2.1875 2.6875s1.8388-1.4109 1.7188-2.9688l-4.375-56.844c-0.12009-1.5578-1.0777-2.7706-2.1562-2.6875zm78.531 3.875c-1.0785 0.0831-1.8722 1.4454-1.75 3.0312l4.4688 57.875c0.12225 1.5859 1.0777 2.7706 2.1562 2.6875s1.8722-1.4141 1.75-3l-4.4688-57.875c-0.12225-1.5859-1.0777-2.8019-2.1562-2.7188zm-128.5 17.75c-1.0785 0.0831-1.8701 1.3796-1.75 2.9375l4.4062 56.875c0.12009 1.5578 1.0777 2.7394 2.1562 2.6562s1.8388-1.4109 1.7188-2.9688l-4.375-56.844c-0.12009-1.5578-1.0777-2.7394-2.1562-2.6562zm-39.875 3.0625c-1.0785 0.0831-1.8701 1.4109-1.75 2.9688l4.375 56.844c0.12009 1.5578 1.109 2.7394 2.1875 2.6562s1.8388-1.4109 1.7188-2.9688l-4.375-56.844c-0.12009-1.5578-1.0777-2.7394-2.1562-2.6562zm-95.094 7.3438c-1.0785 0.0831-1.8701 1.3796-1.75 2.9375l4.4062 56.875c0.12009 1.5578 1.0777 2.7394 2.1562 2.6562s1.8388-1.4109 1.7188-2.9688l-4.375-56.844c-0.12009-1.5578-1.0777-2.7394-2.1562-2.6562zm551.44 0.125c-1.0785 0.0831-1.8297 1.6552-1.6875 3.5l5.1875 67.312c0.14221 1.8448 1.1402 3.2706 2.2188 3.1875s1.8297-1.6552 1.6875-3.5l-5.1875-67.312c-0.14221-1.8448-1.1402-3.2706-2.2188-3.1875zm-19.312 1.5c-1.0785 0.0831-1.8297 1.6239-1.6875 3.4688l5.1875 67.344c0.14221 1.8448 1.1402 3.2394 2.2188 3.1562s1.8297-1.6239 1.6875-3.4688l-5.1875-67.312c-0.14221-1.8448-1.1402-3.2706-2.2188-3.1875zm-373.31 3.125c-1.0785 0.0831-1.8388 1.4109-1.7188 2.9688l4.375 56.844c0.12009 1.5578 1.109 2.7706 2.1875 2.6875s1.8388-1.4109 1.7188-2.9688l-4.375-56.844c-0.12009-1.5578-1.109-2.7706-2.1875-2.6875zm453.84 0.53125c-1.0785 0.0831-1.841 1.4454-1.7188 3.0312l4.4375 57.875c0.12225 1.5859 1.109 2.7706 2.1875 2.6875s1.841-1.4141 1.7188-3l-4.4688-57.875c-0.12225-1.5859-1.0777-2.8019-2.1562-2.7188zm-493.72 2.5625c-1.0785 0.0831-1.8388 1.4109-1.7188 2.9688l4.375 56.844c0.12009 1.5578 1.0777 2.7394 2.1562 2.6562s1.8701-1.4109 1.75-2.9688l-4.4062-56.844c-0.12009-1.5578-1.0777-2.7394-2.1562-2.6562zm456.38 7.4688c-1.0785 0.0831-1.8297 1.6239-1.6875 3.4688l5.1875 67.344c0.14221 1.8448 1.109 3.2394 2.1875 3.1562s1.861-1.6239 1.7188-3.4688l-5.2188-67.312c-0.14221-1.8448-1.109-3.2706-2.1875-3.1875zm-102.88 0.78125c-1.0785 0.0831-1.841 1.4454-1.7188 3.0312l4.4688 57.875c0.12225 1.5859 1.0777 2.7706 2.1562 2.6875s1.841-1.4141 1.7188-3l-4.4688-57.875c-0.12225-1.5859-1.0777-2.8019-2.1562-2.7188zm-493.72 2.5625c-1.0785 0.0831-1.8388 1.4109-1.7188 2.9688l4.375 56.844c0.12009 1.5578 1.109 2.7394 2.1875 2.6562s1.8388-1.4109 1.7188-2.9688l-4.375-56.844c-0.12009-1.5578-1.109-2.7394-2.1875-2.6562zm453.84 0.53125c-1.0785 0.0831-1.841 1.4141-1.7188 3l4.4375 57.875c0.12225 1.5859 1.109 2.8019 2.1875 2.7188s1.841-1.4454 1.7188-3.0312l-4.4688-57.875c-0.12225-1.5859-1.0777-2.7706-2.1562-2.6875zm78.312 1.0938c-1.0785 0.0831-1.8297 1.6239-1.6875 3.4688l5.1875 67.344c0.14221 1.8448 1.109 3.2394 2.1875 3.1562s1.861-1.6239 1.7188-3.4688l-5.1875-67.312c-0.14221-1.8448-1.1402-3.2706-2.2188-3.1875zm-429.06 0.34375c-1.0785 0.0831-1.841 1.4454-1.7188 3.0312l4.4688 57.844c0.12225 1.5859 1.0777 2.8019 2.1562 2.7188s1.841-1.4141 1.7188-3l-4.4375-57.875c-0.12225-1.5859-1.109-2.8019-2.1875-2.7188zm-64.438 4.9688c-1.0785 0.0831-1.841 1.4454-1.7188 3.0312l4.4688 57.844c0.12225 1.5859 1.0777 2.8019 2.1562 2.7188s1.841-1.4141 1.7188-3l-4.4375-57.875c-0.12225-1.5859-1.109-2.8019-2.1875-2.7188zm293.66 16.969c-1.0785 0.0831-1.8297 1.6239-1.6875 3.4688l5.1875 67.344c0.14221 1.8448 1.109 3.2394 2.1875 3.1562s1.861-1.6239 1.7188-3.4688l-5.2188-67.312c-0.14221-1.8448-1.109-3.2706-2.1875-3.1875zm-19.312 1.5c-1.0785 0.0831-1.8297 1.6239-1.6875 3.4688l5.1875 67.312c0.14221 1.8448 1.109 3.2706 2.1875 3.1875s1.8297-1.6239 1.6875-3.4688l-5.1875-67.344c-0.14221-1.8448-1.109-3.2394-2.1875-3.1562zm120.41 0.59375c-1.0785 0.0831-1.8722 1.4141-1.75 3l4.4688 57.875c0.12225 1.5859 1.109 2.8019 2.1875 2.7188s1.841-1.4454 1.7188-3.0312l-4.4688-57.875c-0.12225-1.5859-1.0777-2.7706-2.1562-2.6875zm-39.875 3.0625c-1.0785 0.0831-1.8722 1.4141-1.75 3l4.4688 57.875c0.12225 1.5859 1.0777 2.8019 2.1562 2.7188s1.8722-1.4141 1.75-3l-4.4688-57.875c-0.12225-1.5859-1.0777-2.8019-2.1562-2.7188zm-37.344 10.031c-1.0785 0.0831-1.8297 1.6239-1.6875 3.4688l5.1875 67.312c0.14221 1.8448 1.109 3.2706 2.1875 3.1875s1.8297-1.6239 1.6875-3.4688l-5.1875-67.344c-0.14221-1.8448-1.109-3.2394-2.1875-3.1562zm-102.88 0.78125c-1.0785 0.0831-1.841 1.4141-1.7188 3l4.4375 57.875c0.12225 1.5859 1.109 2.8019 2.1875 2.7188s1.841-1.4141 1.7188-3l-4.4688-57.875c-0.12225-1.5859-1.0777-2.8019-2.1562-2.7188zm-39.875 3.0625c-1.0785 0.0831-1.8722 1.4454-1.75 3.0312l4.4688 57.875c0.12225 1.5859 1.0777 2.7706 2.1562 2.6875s1.8722-1.4141 1.75-3l-4.4688-57.875c-0.12225-1.5859-1.0777-2.8019-2.1562-2.7188zm78.312 1.125c-1.0785 0.0831-1.8297 1.6239-1.6875 3.4688l5.1875 67.312c0.14221 1.8448 1.109 3.2706 2.1875 3.1875s1.8297-1.6239 1.6875-3.4688l-5.1875-67.344c-0.14221-1.8448-1.109-3.2394-2.1875-3.1562zm365.19 15.156c-1.0785 0.0831-1.8297 1.6552-1.6875 3.5l5.1875 67.312c0.11258 1.4605 0.76186 2.6368 1.5625 3.0312v-33.75l-2.8438-36.906c-0.14221-1.8448-1.1402-3.2706-2.2188-3.1875zm-39.875 3.0938c-1.0785 0.0831-1.8297 1.6239-1.6875 3.4688l5.1875 67.312c0.14221 1.8448 1.1402 3.2706 2.2188 3.1875s1.8297-1.6239 1.6875-3.4688l-5.1875-67.312c-0.14221-1.8448-1.1402-3.2706-2.2188-3.1875zm-95.094 7.3125c-1.0785 0.0831-1.8297 1.6552-1.6875 3.5l5.1875 67.312c0.14221 1.8448 1.1402 3.2706 2.2188 3.1875s1.8297-1.6552 1.6875-3.5l-5.1875-67.312c-0.14221-1.8448-1.1402-3.2706-2.2188-3.1875zm-39.875 3.0938c-1.0785 0.0831-1.8297 1.6239-1.6875 3.4688l5.1875 67.312c0.14221 1.8448 1.1402 3.2706 2.2188 3.1875s1.8297-1.6239 1.6875-3.4688l-5.1875-67.312c-0.14221-1.8448-1.1402-3.2706-2.2188-3.1875zm97.844 2.2188c-1.0785 0.0831-1.8297 1.6239-1.6875 3.4688l5.1875 67.312c0.14221 1.8448 1.109 3.2706 2.1875 3.1875s1.8297-1.6239 1.6875-3.4688l-5.1875-67.344c-0.14221-1.8448-1.109-3.2394-2.1875-3.1562zm-19.312 1.4688c-1.0785 0.0831-1.8297 1.6552-1.6875 3.5l5.1875 67.312c0.14221 1.8448 1.109 3.2706 2.1875 3.1875s1.8297-1.6552 1.6875-3.5l-5.1875-67.312c-0.14221-1.8448-1.109-3.2706-2.1875-3.1875zm80.312 1.0938c-1.0785 0.0831-1.8297 1.6239-1.6875 3.4688l5.1875 67.312c0.14221 1.8448 1.109 3.2706 2.1875 3.1875s1.861-1.6239 1.7188-3.4688l-5.2188-67.344c-0.14221-1.8448-1.109-3.2394-2.1875-3.1562zm-554.69 0.15625c-1.0785 0.0831-1.8297 1.6239-1.6875 3.4688l5.1875 67.312c0.14221 1.8448 1.109 3.2706 2.1875 3.1875s1.8297-1.6239 1.6875-3.4688l-5.1875-67.344c-0.14221-1.8448-1.109-3.2394-2.1875-3.1562zm-19.312 1.4688c-1.0785 0.0831-1.861 1.6552-1.7188 3.5l5.2188 67.312c0.14221 1.8448 1.109 3.2706 2.1875 3.1875s1.8297-1.6552 1.6875-3.5l-5.1875-67.312c-0.14221-1.8448-1.109-3.2706-2.1875-3.1875zm120.38 0.59375c-1.0785 0.0831-1.841 1.4454-1.7188 3.0312l4.4688 57.875c0.12225 1.5859 1.0777 2.7706 2.1562 2.6875s1.8722-1.4141 1.75-3l-4.4688-57.875c-0.12225-1.5859-1.109-2.8019-2.1875-2.7188zm-39.875 3.0938c-1.0785 0.0831-1.841 1.4141-1.7188 3l4.4688 57.875c0.12225 1.5859 1.0777 2.8019 2.1562 2.7188s1.841-1.4454 1.7188-3.0312l-4.4375-57.844c-0.12225-1.5859-1.109-2.8019-2.1875-2.7188zm353.28 5.5c-1.0785 0.0831-1.8297 1.6239-1.6875 3.4688l5.1875 67.312c0.14221 1.8448 1.1402 3.2706 2.2188 3.1875s1.8297-1.6239 1.6875-3.4688l-5.1875-67.344c-0.14221-1.8448-1.1402-3.2394-2.2188-3.1562zm103.06 1.7812c-1.0785 0.0831-1.8297 1.6552-1.6875 3.5l5.1875 67.312c0.14221 1.8448 1.1402 3.2706 2.2188 3.1875s1.8297-1.6552 1.6875-3.5l-5.1875-67.312c-0.14221-1.8448-1.1402-3.2706-2.2188-3.1875zm-142.94 1.2812c-1.0785 0.0831-1.8297 1.6239-1.6875 3.4688l5.1875 67.312c0.14221 1.8448 1.109 3.2706 2.1875 3.1875s1.861-1.6239 1.7188-3.4688l-5.2188-67.312c-0.14221-1.8448-1.109-3.2706-2.1875-3.1875zm-350.75 1.4375c-1.0785 0.0831-1.8297 1.6552-1.6875 3.5l5.1875 67.312c0.14221 1.8448 1.1402 3.2706 2.2188 3.1875s1.8297-1.6552 1.6875-3.5l-5.1875-67.312c-0.14221-1.8448-1.1402-3.2706-2.2188-3.1875zm-102.88 0.8125c-1.0785 0.0831-1.841 1.4141-1.7188 3l4.4688 57.875c0.12225 1.5859 1.0777 2.8019 2.1562 2.7188s1.8722-1.4454 1.75-3.0312l-4.4688-57.875c-0.12225-1.5859-1.109-2.7706-2.1875-2.6875zm532.16 1.4375c-1.0785 0.0831-1.861 1.6552-1.7188 3.5l5.1875 67.312c0.14221 1.8448 1.1402 3.2706 2.2188 3.1875s1.8297-1.6552 1.6875-3.5l-5.1875-67.312c-0.14221-1.8448-1.109-3.2706-2.1875-3.1875zm-493.72 2.7188c-1.0785 0.0831-1.8297 1.6552-1.6875 3.5l5.1875 67.312c0.14221 1.8448 1.1402 3.2706 2.2188 3.1875s1.8297-1.6552 1.6875-3.5l-5.1875-67.312c-0.14221-1.8448-1.1402-3.2706-2.2188-3.1875zm370.88 3.875c-1.0785 0.0831-1.8297 1.6239-1.6875 3.4688l5.1875 67.344c0.14221 1.8448 1.1402 3.2394 2.2188 3.1562s1.8297-1.6239 1.6875-3.4688l-5.1875-67.312c-0.14221-1.8448-1.1402-3.2706-2.2188-3.1875zm-39.875 3.0938c-1.0785 0.0831-1.8297 1.6239-1.6875 3.4688l5.1875 67.312c0.14221 1.8448 1.109 3.2706 2.1875 3.1875s1.861-1.6552 1.7188-3.5l-5.2188-67.312c-0.14221-1.8448-1.109-3.2394-2.1875-3.1562zm-95.094 7.3125c-1.0785 0.0831-1.8297 1.6239-1.6875 3.4688l5.1875 67.344c0.14221 1.8448 1.1402 3.2394 2.2188 3.1562s1.8297-1.6239 1.6875-3.4688l-5.1875-67.312c-0.14221-1.8448-1.1402-3.2706-2.2188-3.1875zm-39.875 3.0625c-1.0785 0.0831-1.8297 1.6552-1.6875 3.5l5.1875 67.312c0.14221 1.8448 1.109 3.2706 2.1875 3.1875s1.8297-1.6552 1.6875-3.5l-5.1875-67.312c-0.14221-1.8448-1.109-3.2706-2.1875-3.1875zm198.72 1.7188c-1.0785 0.0831-1.8297 1.6239-1.6875 3.4688l5.1875 67.344c0.14221 1.8448 1.109 3.2394 2.1875 3.1562s1.8297-1.6239 1.6875-3.4688l-5.1875-67.312c-0.14221-1.8448-1.109-3.2706-2.1875-3.1875zm-100.91 0.5c-1.0785 0.0831-1.8297 1.6552-1.6875 3.5l5.1875 67.312c0.14221 1.8448 1.1402 3.2706 2.2188 3.1875s1.8297-1.6552 1.6875-3.5l-5.1875-67.312c-0.14221-1.8448-1.1402-3.2706-2.2188-3.1875zm-19.312 1.5c-1.0785 0.0831-1.8297 1.6239-1.6875 3.4688l5.1875 67.312c0.14221 1.8448 1.1402 3.2706 2.2188 3.1875s1.8297-1.6239 1.6875-3.4688l-5.1875-67.312c-0.14221-1.8448-1.1402-3.2706-2.2188-3.1875zm80.344 1.0625c-1.0785 0.0831-1.8297 1.6552-1.6875 3.5l5.1875 67.312c0.14221 1.8448 1.109 3.2706 2.1875 3.1875s1.8297-1.6552 1.6875-3.5l-5.1875-67.312c-0.14221-1.8448-1.109-3.2706-2.1875-3.1875zm-140.22 10.812c-1.0785 0.0831-1.8297 1.6552-1.6875 3.5l5.1875 67.312c0.14221 1.8448 1.109 3.2706 2.1875 3.1875s1.8297-1.6552 1.6875-3.5l-5.1875-67.312c-0.14221-1.8448-1.109-3.2706-2.1875-3.1875zm103.06 1.8125c-1.0785 0.0831-1.8297 1.6239-1.6875 3.4688l5.1875 67.344c0.14221 1.8448 1.1402 3.2394 2.2188 3.1562s1.8297-1.6239 1.6875-3.4688l-5.1875-67.312c-0.14221-1.8448-1.1402-3.2706-2.2188-3.1875zm-142.94 1.2812c-1.0785 0.0831-1.8297 1.6239-1.6875 3.4688l5.1875 67.312c0.14221 1.8448 1.109 3.2706 2.1875 3.1875s1.8297-1.6239 1.6875-3.4688l-5.1875-67.344c-0.14221-1.8448-1.109-3.2394-2.1875-3.1562zm78.5 3.6875c-1.0785 0.0831-1.8297 1.6239-1.6875 3.4688l5.1875 67.344c0.14221 1.8448 1.1402 3.2394 2.2188 3.1562s1.8297-1.6239 1.6875-3.4688l-5.1875-67.312c-0.14221-1.8448-1.1402-3.2706-2.2188-3.1875zm-128.47 17.906c-1.0785 0.0831-1.8297 1.6239-1.6875 3.4688l5.1875 67.312c0.14221 1.8448 1.109 3.2706 2.1875 3.1875s1.8297-1.6239 1.6875-3.4688l-5.1875-67.312c-0.14221-1.8448-1.109-3.2706-2.1875-3.1875zm453.81 0.34375c-1.0785 0.0831-1.8297 1.6552-1.6875 3.5l5.1875 67.312c0.14221 1.8448 1.109 3.2706 2.1875 3.1875s1.8297-1.6552 1.6875-3.5l-5.1875-67.312c-0.14221-1.8448-1.109-3.2706-2.1875-3.1875zm-493.69 2.7188c-1.0785 0.0831-1.8297 1.6552-1.6875 3.5l5.1875 67.312c0.14221 1.8448 1.109 3.2706 2.1875 3.1875s1.8297-1.6552 1.6875-3.5l-5.1875-67.312c-0.14221-1.8448-1.109-3.2706-2.1875-3.1875zm398.59 4.625c-1.0785 0.0831-1.8297 1.6239-1.6875 3.4688l5.1875 67.312c0.14221 1.8448 1.109 3.2706 2.1875 3.1875s1.8297-1.6239 1.6875-3.4688l-5.1875-67.312c-0.14221-1.8448-1.109-3.2706-2.1875-3.1875zm-493.69 2.7188c-1.0785 0.0831-1.8297 1.6239-1.6875 3.4688l5.1875 67.312c0.14221 1.8448 1.109 3.2706 2.1875 3.1875s1.8297-1.6239 1.6875-3.4688l-5.1875-67.312c-0.14221-1.8448-1.109-3.2706-2.1875-3.1875zm453.81 0.34375c-1.0785 0.0831-1.8297 1.6239-1.6875 3.4688l5.1875 67.344c0.14221 1.8448 1.109 3.2394 2.1875 3.1562s1.8297-1.6239 1.6875-3.4688l-5.1875-67.312c-0.14221-1.8448-1.109-3.2706-2.1875-3.1875zm-493.69 2.7188c-1.0785 0.0831-1.861 1.6552-1.7188 3.5l5.1875 67.312c0.14221 1.8448 1.1402 3.2394 2.2188 3.1562s1.8297-1.6239 1.6875-3.4688l-5.1875-67.312c-0.14221-1.8448-1.109-3.2706-2.1875-3.1875zm198.72 1.7188c-1.0785 0.0831-1.861 1.6239-1.7188 3.4688l5.1875 67.312c0.14221 1.8448 1.1402 3.2706 2.2188 3.1875s1.8297-1.6239 1.6875-3.4688l-5.1875-67.344c-0.14221-1.8448-1.109-3.2394-2.1875-3.1562zm453.78 0.34375c-1.0785 0.0831-1.8297 1.6239-1.6875 3.4688l5.1875 67.344c0.14221 1.8448 1.1402 3.2394 2.2188 3.1562s1.8297-1.6239 1.6875-3.4688l-5.1875-67.312c-0.14221-1.8448-1.1402-3.2706-2.2188-3.1875zm-554.69 0.15625c-1.0785 0.0831-1.8297 1.6239-1.6875 3.4688l5.1875 67.344c0.14221 1.8448 1.1402 3.2394 2.2188 3.1562s1.8297-1.6239 1.6875-3.4688l-5.1875-67.312c-0.14221-1.8448-1.1402-3.2706-2.2188-3.1875zm-19.312 1.5c-1.0785 0.0831-1.8297 1.6239-1.6875 3.4688l5.1875 67.312c0.14221 1.8448 1.1402 3.2706 2.2188 3.1875s1.8297-1.6239 1.6875-3.4688l-5.1875-67.344c-0.14221-1.8448-1.1402-3.2394-2.2188-3.1562zm80.312 1.0625c-1.0785 0.0831-1.8297 1.6239-1.6875 3.4688l5.1875 67.344c0.14221 1.8448 1.1402 3.2394 2.2188 3.1562s1.8297-1.6239 1.6875-3.4688l-5.1875-67.312c-0.14221-1.8448-1.1402-3.2706-2.2188-3.1875zm433.31 2.5c-1.0785 0.0831-1.8722 1.4454-1.75 3.0312l4.4688 57.844c0.12225 1.5859 1.0777 2.8019 2.1562 2.7188s1.8722-1.4141 1.75-3l-4.4688-57.875c-0.12225-1.5859-1.0777-2.8019-2.1562-2.7188zm-19.344 1.5c-1.0785 0.0831-1.841 1.4141-1.7188 3l4.4688 57.875c0.12225 1.5859 1.0777 2.8019 2.1562 2.7188s1.8722-1.4454 1.75-3.0312l-4.4688-57.844c-0.12225-1.5859-1.109-2.8019-2.1875-2.7188zm-60.469 4.0938c-1.0785 0.0831-1.8297 1.6239-1.6875 3.4688l5.1875 67.312c0.14221 1.8448 1.109 3.2706 2.1875 3.1875s1.8297-1.6239 1.6875-3.4688l-5.1875-67.312c-0.14221-1.8448-1.109-3.2706-2.1875-3.1875zm-493.69 2.7188c-1.0785 0.0831-1.861 1.6239-1.7188 3.4688l5.2188 67.312c0.14221 1.8448 1.109 3.2706 2.1875 3.1875s1.8297-1.6239 1.6875-3.4688l-5.1875-67.312c-0.14221-1.8448-1.109-3.2706-2.1875-3.1875zm453.78 0.34375c-1.0785 0.0831-1.8297 1.6552-1.6875 3.5l5.1875 67.312c0.14221 1.8448 1.1402 3.2706 2.2188 3.1875s1.8297-1.6552 1.6875-3.5l-5.1875-67.312c-0.14221-1.8448-1.1402-3.2706-2.2188-3.1875zm-350.72 1.4688c-1.0785 0.0831-1.8297 1.6239-1.6875 3.4688l5.1875 67.312c0.14221 1.8448 1.109 3.2706 2.1875 3.1875s1.8297-1.6239 1.6875-3.4688l-5.1875-67.344c-0.14221-1.8448-1.109-3.2394-2.1875-3.1562zm-64.438 4.9688c-1.0785 0.0831-1.8297 1.6239-1.6875 3.4688l5.1875 67.312c0.14221 1.8448 1.109 3.2706 2.1875 3.1875s1.8297-1.6239 1.6875-3.4688l-5.1875-67.344c-0.14221-1.8448-1.109-3.2394-2.1875-3.1562zm558.72 0.0937c-1.0785 0.0831-1.841 1.4141-1.7188 3l4.4688 57.875c0.12225 1.5859 1.0777 2.8019 2.1562 2.7188s1.841-1.4141 1.7188-3l-4.4375-57.875c-0.12225-1.5859-1.109-2.8019-2.1875-2.7188zm-187.84 3.75c-1.0785 0.0831-1.8297 1.6552-1.6875 3.5l5.1875 67.312c0.14221 1.8448 1.109 3.2706 2.1875 3.1875s1.8297-1.6552 1.6875-3.5l-5.1875-67.312c-0.14221-1.8448-1.109-3.2706-2.1875-3.1875zm123.41 1.2188c-1.0785 0.0831-1.841 1.4141-1.7188 3l4.4688 57.875c0.12225 1.5859 1.0777 2.8019 2.1562 2.7188s1.841-1.4141 1.7188-3l-4.4375-57.875c-0.12225-1.5859-1.109-2.8019-2.1875-2.7188zm-163.31 1.875c-1.0785 0.0831-1.8297 1.6239-1.6875 3.4688l5.1875 67.312c0.14221 1.8448 1.1402 3.2706 2.2188 3.1875s1.8297-1.6239 1.6875-3.4688l-5.1875-67.312c-0.14221-1.8448-1.1402-3.2706-2.2188-3.1875zm-95.062 7.3125c-1.0785 0.0831-1.861 1.6552-1.7188 3.5l5.2188 67.312c0.14221 1.8448 1.109 3.2706 2.1875 3.1875s1.8297-1.6552 1.6875-3.5l-5.1875-67.312c-0.14221-1.8448-1.109-3.2706-2.1875-3.1875zm-39.906 3.0938c-1.0785 0.0831-1.8297 1.6239-1.6875 3.4688l5.1875 67.312c0.14221 1.8448 1.1402 3.2706 2.2188 3.1875s1.8297-1.6239 1.6875-3.4688l-5.1875-67.312c-0.14221-1.8448-1.1402-3.2706-2.2188-3.1875zm198.72 1.6875c-1.0785 0.0831-1.8297 1.6552-1.6875 3.5l5.1875 67.312c0.14221 1.8448 1.1402 3.2706 2.2188 3.1875s1.8297-1.6552 1.6875-3.5l-5.1875-67.312c-0.14221-1.8448-1.1402-3.2706-2.2188-3.1875zm-39.875 3.0938c-1.0785 0.0831-1.8297 1.6239-1.6875 3.4688l5.1875 67.312c0.14221 1.8448 1.1402 3.2706 2.2188 3.1875s1.8297-1.6239 1.6875-3.4688l-5.1875-67.344c-0.14221-1.8448-1.1402-3.2394-2.2188-3.1562zm-60.406 5.2188c-1.0785 0.0831-1.841 1.4141-1.7188 3l4.4688 57.875c0.12225 1.5859 1.0777 2.8019 2.1562 2.7188s1.841-1.4454 1.7188-3.0312l-4.4375-57.844c-0.12225-1.5859-1.109-2.8019-2.1875-2.7188zm-19.312 1.4688c-1.0785 0.0831-1.841 1.4454-1.7188 3.0312l4.4688 57.875c0.12225 1.5859 1.0777 2.7706 2.1562 2.6875s1.841-1.4141 1.7188-3l-4.4688-57.875c-0.12225-1.5859-1.0777-2.8019-2.1562-2.7188zm-60.5 4.125c-1.0785 0.0831-1.8297 1.6239-1.6875 3.4688l5.1875 67.312c0.14221 1.8448 1.1402 3.2706 2.2188 3.1875s1.8297-1.6552 1.6875-3.5l-5.1875-67.312c-0.14221-1.8448-1.1402-3.2394-2.2188-3.1562zm-39.875 3.0625c-1.0785 0.0831-1.8297 1.6239-1.6875 3.4688l5.1875 67.312c0.14221 1.8448 1.1402 3.2706 2.2188 3.1875s1.8297-1.6239 1.6875-3.4688l-5.1875-67.312c-0.14221-1.8448-1.1402-3.2706-2.2188-3.1875zm143.56 6.5312c-1.0785 0.0831-1.841 1.4141-1.7188 3l4.4375 57.875c0.12225 1.5859 1.109 2.8019 2.1875 2.7188s1.841-1.4454 1.7188-3.0312l-4.4688-57.875c-0.12225-1.5859-1.0777-2.7706-2.1562-2.6875zm-64.438 4.9688c-1.0785 0.0831-1.841 1.4141-1.7188 3l4.4375 57.875c0.12225 1.5859 1.109 2.8019 2.1875 2.7188s1.841-1.4454 1.7188-3.0312l-4.4688-57.875c-0.12225-1.5859-1.0777-2.7706-2.1562-2.6875zm-129.09 10.094c-1.0785 0.0831-1.8297 1.6239-1.6875 3.4688l5.1875 67.344c0.14221 1.8448 1.1402 3.2394 2.2188 3.1562s1.8297-1.6239 1.6875-3.4688l-5.1875-67.312c-0.14221-1.8448-1.1402-3.2706-2.2188-3.1875zm-39.875 3.0938c-1.0785 0.0831-1.8297 1.6239-1.6875 3.4688l5.1875 67.312c0.14221 1.8448 1.1402 3.2706 2.2188 3.1875s1.8297-1.6552 1.6875-3.5l-5.1875-67.312c-0.14221-1.8448-1.1402-3.2394-2.2188-3.1562zm494.31 5.0625c-1.0785 0.0831-1.8722 1.4141-1.75 3l4.4688 57.875c0.12225 1.5859 1.0777 2.8019 2.1562 2.7188s1.8722-1.4454 1.75-3.0312l-4.4688-57.844c-0.12225-1.5859-1.0777-2.8019-2.1562-2.7188zm-589.41 2.25c-1.0785 0.0831-1.8297 1.6239-1.6875 3.4688l5.1875 67.344c0.14221 1.8448 1.1402 3.2394 2.2188 3.1562s1.8297-1.6239 1.6875-3.4688l-5.1875-67.312c-0.14221-1.8448-1.1402-3.2706-2.2188-3.1875zm-39.875 3.0625c-1.0785 0.0831-1.8297 1.6552-1.6875 3.5l5.1875 67.312c0.14221 1.8448 1.1402 3.2706 2.2188 3.1875s1.8297-1.6552 1.6875-3.5l-5.1875-67.312c-0.14221-1.8448-1.1402-3.2706-2.2188-3.1875zm198.72 1.7188c-1.0785 0.0831-1.8297 1.6239-1.6875 3.4688l5.1875 67.344c0.14221 1.8448 1.1402 3.2394 2.2188 3.1562s1.8297-1.6239 1.6875-3.4688l-5.1875-67.312c-0.14221-1.8448-1.1402-3.2706-2.2188-3.1875zm335.47 0.28125c-1.0785 0.0831-1.8722 1.4454-1.75 3.0312l4.4688 57.875c0.12225 1.5859 1.109 2.7706 2.1875 2.6875s1.841-1.4141 1.7188-3l-4.4688-57.875c-0.12225-1.5859-1.0777-2.8019-2.1562-2.7188zm-375.34 2.7812c-1.0785 0.0831-1.8297 1.6552-1.6875 3.5l5.1875 67.312c0.14221 1.8448 1.109 3.2706 2.1875 3.1875s1.8297-1.6552 1.6875-3.5l-5.1875-67.312c-0.14221-1.8448-1.109-3.2706-2.1875-3.1875zm335.44 0.3125c-1.0785 0.0831-1.841 1.4141-1.7188 3l4.4688 57.875c0.12225 1.5859 1.0777 2.8019 2.1562 2.7188s1.8722-1.4454 1.75-3.0312l-4.4688-57.875c-0.12225-1.5859-1.109-2.7706-2.1875-2.6875zm97.938 3.5c-1.0785 0.0831-1.8388 1.4109-1.7188 2.9688l4.375 56.844c0.12009 1.5578 1.0777 2.7394 2.1562 2.6562s1.8701-1.4109 1.75-2.9688l-4.4062-56.844c-0.12009-1.5578-1.0777-2.7394-2.1562-2.6562zm60.906 1.25c-1.0785 0.0831-1.841 1.4454-1.7188 3.0312l4.4688 57.875c0.12225 1.5859 1.0777 2.8019 2.1562 2.7188 0.4589-0.0354 0.85559-0.30156 1.1562-0.71875v-9.6562l-3.875-50.531c-0.12225-1.5859-1.109-2.8019-2.1875-2.7188zm-554.69 0.15625c-1.0785 0.0831-1.841 1.4454-1.7188 3.0312l4.4375 57.875c0.12225 1.5859 1.109 2.8019 2.1875 2.7188s1.841-1.4454 1.7188-3.0312l-4.4688-57.875c-0.12225-1.5859-1.0777-2.8019-2.1562-2.7188zm474.47 0.0937c-1.0785 0.0831-1.8388 1.3796-1.7188 2.9375l4.375 56.875c0.12009 1.5578 1.0777 2.7394 2.1562 2.6562s1.8701-1.4109 1.75-2.9688l-4.4062-56.844c-0.12009-1.5578-1.0777-2.7394-2.1562-2.6562zm-493.78 1.4063c-1.0785 0.0831-1.841 1.4141-1.7188 3l4.4375 57.875c0.12225 1.5859 1.109 2.8019 2.1875 2.7188s1.841-1.4141 1.7188-3l-4.4688-57.875c-0.12225-1.5859-1.0777-2.8019-2.1562-2.7188zm-60.5 4.0938c-1.0785 0.0831-1.8297 1.6552-1.6875 3.5l5.1875 67.312c0.14221 1.8448 1.1402 3.2706 2.2188 3.1875s1.8297-1.6552 1.6875-3.5l-5.1875-67.312c-0.14221-1.8448-1.1402-3.2706-2.2188-3.1875zm494.28 5.0625c-1.0785 0.0831-1.841 1.4454-1.7188 3.0312l4.4688 57.875c0.12225 1.5859 1.0777 2.7706 2.1562 2.6875s1.8722-1.4141 1.75-3l-4.4688-57.875c-0.12225-1.5859-1.109-2.8019-2.1875-2.7188zm-39.875 3.0938c-1.0785 0.0831-1.841 1.4141-1.7188 3l4.4688 57.875c0.12225 1.5859 1.0777 2.8019 2.1562 2.7188s1.841-1.4454 1.7188-3.0312l-4.4375-57.844c-0.12225-1.5859-1.109-2.8019-2.1875-2.7188zm143.06 0.0312c-1.0785 0.0831-1.8388 1.4109-1.7188 2.9688l4.375 56.844c0.12009 1.5578 1.0777 2.7394 2.1562 2.6562s1.8388-1.4109 1.7188-2.9688l-4.375-56.844c-0.12009-1.5578-1.0777-2.7394-2.1562-2.6562zm-493.78 1.4063c-1.0785 0.0831-1.8722 1.4454-1.75 3.0312l4.4688 57.875c0.12225 1.5859 1.0777 2.7706 2.1562 2.6875s1.8722-1.4141 1.75-3l-4.4688-57.875c-0.12225-1.5859-1.0777-2.8019-2.1562-2.7188zm429.34 3.5625c-1.0785 0.0831-1.8388 1.4109-1.7188 2.9688l4.375 56.844c0.12009 1.5578 1.0777 2.7394 2.1562 2.6562s1.8388-1.4109 1.7188-2.9688l-4.375-56.844c-0.12009-1.5578-1.0777-2.7394-2.1562-2.6562zm-493.78 1.4062c-1.0785 0.0831-1.8722 1.4454-1.75 3.0312l4.4688 57.844c0.12225 1.5859 1.0777 2.8019 2.1562 2.7188s1.8722-1.4141 1.75-3l-4.4688-57.875c-0.12225-1.5859-1.0777-2.8019-2.1562-2.7188zm370.84 3.875c-1.0785 0.0831-1.841 1.4141-1.7188 3l4.4688 57.875c0.12225 1.5859 1.0777 2.8019 2.1562 2.7188s1.8722-1.4141 1.75-3l-4.4688-57.875c-0.12225-1.5859-1.109-2.8019-2.1875-2.7188zm-39.875 3.0625c-1.0785 0.0831-1.841 1.4454-1.7188 3.0312l4.4688 57.875c0.12225 1.5859 1.0777 2.7706 2.1562 2.6875s1.841-1.4141 1.7188-3l-4.4375-57.875c-0.12225-1.5859-1.109-2.8019-2.1875-2.7188zm-95.094 7.3438c-1.0785 0.0831-1.841 1.4141-1.7188 3l4.4688 57.875c0.12225 1.5859 1.0777 2.8019 2.1562 2.7188s1.841-1.4141 1.7188-3l-4.4375-57.875c-0.12225-1.5859-1.109-2.8019-2.1875-2.7188zm-39.875 3.0625c-1.0785 0.0831-1.841 1.4454-1.7188 3.0312l4.4688 57.875c0.12225 1.5859 1.0777 2.7706 2.1562 2.6875s1.841-1.4141 1.7188-3l-4.4688-57.875c-0.12225-1.5859-1.0777-2.8019-2.1562-2.7188zm198.72 1.7188c-1.0785 0.0831-1.841 1.4141-1.7188 3l4.4688 57.875c0.12225 1.5859 1.0777 2.8019 2.1562 2.7188s1.841-1.4454 1.7188-3.0312l-4.4688-57.844c-0.12225-1.5859-1.0777-2.8019-2.1562-2.7188zm-100.78 1.8125c-1.0785 0.0831-1.8388 1.3796-1.7188 2.9375l4.375 56.875c0.12009 1.5578 1.0777 2.7394 2.1562 2.6562s1.8388-1.4109 1.7188-2.9688l-4.375-56.844c-0.12009-1.5578-1.0777-2.7394-2.1562-2.6562zm60.906 1.25c-1.0785 0.0831-1.841 1.4454-1.7188 3.0312l4.4375 57.844c0.12225 1.5859 1.109 2.8019 2.1875 2.7188s1.841-1.4141 1.7188-3l-4.4688-57.875c-0.12225-1.5859-1.0777-2.8019-2.1562-2.7188zm-80.219 0.21875c-1.0785 0.0831-1.8701 1.4109-1.75 2.9688l4.4062 56.844c0.12009 1.5578 1.0777 2.7394 2.1562 2.6562s1.8388-1.3796 1.7188-2.9375l-4.375-56.875c-0.12009-1.5578-1.0777-2.7394-2.1562-2.6562zm-60 10.594c-1.0785 0.0831-1.841 1.4141-1.7188 3l4.4688 57.875c0.12225 1.5859 1.0777 2.8019 2.1562 2.7188s1.841-1.4141 1.7188-3l-4.4688-57.875c-0.12225-1.5859-1.0777-2.8019-2.1562-2.7188zm-39.875 3.0625c-1.0785 0.0831-1.841 1.4454-1.7188 3.0312l4.4375 57.875c0.12225 1.5859 1.109 2.7706 2.1875 2.6875s1.841-1.4141 1.7188-3l-4.4688-57.875c-0.12225-1.5859-1.0777-2.8019-2.1562-2.7188zm143.06 0.0312c-1.0785 0.0831-1.8701 1.4109-1.75 2.9688l4.375 56.844c0.12009 1.5578 1.109 2.7706 2.1875 2.6875s1.8388-1.4109 1.7188-2.9688l-4.375-56.844c-0.12009-1.5578-1.0777-2.7706-2.1562-2.6875zm-64.438 4.9688c-1.0785 0.0831-1.8701 1.4109-1.75 2.9688l4.4062 56.844c0.12009 1.5578 1.0777 2.7394 2.1562 2.6562s1.8388-1.3796 1.7188-2.9375l-4.375-56.844c-0.12009-1.5578-1.0777-2.7706-2.1562-2.6875zm-128.59 16.625c-1.0785 0.0831-1.841 1.4141-1.7188 3l4.4688 57.875c0.12225 1.5859 1.0777 2.8019 2.1562 2.7188s1.841-1.4454 1.7188-3.0312l-4.4688-57.875c-0.12225-1.5859-1.0777-2.7706-2.1562-2.6875zm453.91 1.6562c-1.0785 0.0831-1.8388 1.3796-1.7188 2.9375l4.375 56.844c0.12009 1.5578 1.0777 2.7706 2.1562 2.6875s1.8701-1.4109 1.75-2.9688l-4.4062-56.844c-0.12009-1.5578-1.0777-2.7394-2.1562-2.6562zm-493.78 1.4062c-1.0785 0.0831-1.841 1.4141-1.7188 3l4.4375 57.875c0.12225 1.5859 1.109 2.8019 2.1875 2.7188s1.841-1.4141 1.7188-3l-4.4688-57.875c-0.12225-1.5859-1.0777-2.8019-2.1562-2.7188zm398.69 5.9062c-1.0785 0.0831-1.8388 1.4109-1.7188 2.9688l4.375 56.844c0.12009 1.5578 1.0777 2.7394 2.1562 2.6562s1.8701-1.4109 1.75-2.9688l-4.375-56.844c-0.12009-1.5578-1.109-2.7394-2.1875-2.6562zm-493.78 1.4375c-1.0785 0.0831-1.841 1.4141-1.7188 3l4.4375 57.875c0.12225 1.5859 1.109 2.8019 2.1875 2.7188s1.841-1.4454 1.7188-3.0312l-4.4688-57.875c-0.12225-1.5859-1.0777-2.7706-2.1562-2.6875zm574.16 0.125c-1.0785 0.0831-1.8287 1.6063-1.6875 3.4375l5.125 66.812c0.14116 1.8312 1.1402 3.2394 2.2188 3.1562s1.8287-1.6063 1.6875-3.4375l-5.1562-66.812c-0.14116-1.8312-1.109-3.2394-2.1875-3.1562zm-120.25 1.5312c-1.0785 0.0831-1.8388 1.3796-1.7188 2.9375l4.375 56.844c0.12009 1.5578 1.0777 2.7706 2.1562 2.6875s1.8701-1.4109 1.75-2.9688l-4.4062-56.844c-0.12009-1.5578-1.0777-2.7394-2.1562-2.6562zm-493.78 1.4062c-1.0785 0.0831-1.841 1.4141-1.7188 3l4.4375 57.875c0.12225 1.5859 1.109 2.8019 2.1875 2.7188s1.841-1.4141 1.7188-3l-4.4688-57.875c-0.12225-1.5859-1.0777-2.8019-2.1562-2.7188zm198.72 1.6875c-1.0785 0.0831-1.841 1.4454-1.7188 3.0312l4.4375 57.875c0.12225 1.5859 1.109 2.8019 2.1875 2.7188s1.841-1.4454 1.7188-3.0312l-4.4688-57.875c-0.12225-1.5859-1.0777-2.8019-2.1562-2.7188zm350.88 0.34375c-1.0785 0.0831-1.8287 1.6063-1.6875 3.4375l5.125 66.812c0.14116 1.8312 1.1402 3.2394 2.2188 3.1562s1.8287-1.6063 1.6875-3.4375l-5.1562-66.812c-0.14116-1.8312-1.109-3.2394-2.1875-3.1562zm-451.66 1.4688c-1.0785 0.0831-1.8701 1.4109-1.75 2.9688l4.375 56.844c0.12009 1.5578 1.109 2.7394 2.1875 2.6562s1.8388-1.3796 1.7188-2.9375l-4.375-56.875c-0.12009-1.5578-1.0777-2.7394-2.1562-2.6562zm553.44 0.6875c-0.34886 0.54562-0.53255 1.2974-0.46875 2.125l0.46875 6.0938v-8.2188zm-492.53 0.59375c-1.0785 0.0831-1.8722 1.4141-1.75 3l4.4688 57.875c0.12225 1.5859 1.0777 2.8019 2.1562 2.7188s1.8722-1.4141 1.75-3l-4.4688-57.875c-0.12225-1.5859-1.0777-2.8019-2.1562-2.7188zm-80.25 0.21875c-1.0785 0.0831-1.8388 1.4109-1.7188 2.9688l4.375 56.844c0.12009 1.5578 1.109 2.7394 2.1875 2.6562s1.8388-1.4109 1.7188-2.9688l-4.375-56.844c-0.12009-1.5578-1.109-2.7394-2.1875-2.6562zm433.81 9.1562c-1.0785 0.0831-1.8388 1.4109-1.7188 2.9688l4.375 56.844c0.12009 1.5578 1.0777 2.7394 2.1562 2.6562s1.8701-1.3796 1.75-2.9375l-4.4062-56.875c-0.12009-1.5578-1.0777-2.7394-2.1562-2.6562zm-493.78 1.4375c-1.0785 0.0831-1.841 1.4141-1.7188 3l4.4375 57.875c0.12225 1.5859 1.109 2.8019 2.1875 2.7188s1.841-1.4454 1.7188-3.0312l-4.4688-57.844c-0.12225-1.5859-1.0777-2.8019-2.1562-2.7188zm453.91 1.6562c-1.0785 0.0831-1.8388 1.3796-1.7188 2.9375l4.375 56.875c0.12009 1.5578 1.0777 2.7394 2.1562 2.6562s1.8388-1.4109 1.7188-2.9688l-4.375-56.844c-0.12009-1.5578-1.0777-2.7394-2.1562-2.6562zm-350.75 1.4375c-1.0785 0.0831-1.8388 1.4109-1.7188 2.9688l4.375 56.844c0.12009 1.5578 1.0777 2.7394 2.1562 2.6562s1.8701-1.4109 1.75-2.9688l-4.4062-56.844c-0.12009-1.5578-1.0777-2.7394-2.1562-2.6562zm-141.84 0.4375v40.562l1.5312 19.844c0.12225 1.5859 1.0777 2.8019 2.1562 2.7188s1.8722-1.4141 1.75-3l-4.4688-57.875c-0.07335-0.95154-0.44888-1.7655-0.96875-2.25zm77.406 4.5312c-1.0785 0.0831-1.8388 1.4109-1.7188 2.9688l4.375 56.844c0.12009 1.5578 1.0777 2.7394 2.1562 2.6562s1.8701-1.4109 1.75-2.9688l-4.375-56.844c-0.12009-1.5578-1.109-2.7394-2.1875-2.6562zm370.88 3.875c-1.0785 0.0831-1.8388 1.4109-1.7188 2.9688l4.375 56.844c0.12009 1.5578 1.0777 2.7394 2.1562 2.6562s1.8701-1.4109 1.75-2.9688l-4.4062-56.844c-0.12009-1.5578-1.0777-2.7394-2.1562-2.6562zm-39.875 3.0625c-1.0785 0.0831-1.8388 1.4109-1.7188 2.9688l4.375 56.844c0.12009 1.5578 1.0777 2.7394 2.1562 2.6562s1.8388-1.3796 1.7188-2.9375l-4.375-56.875c-0.12009-1.5578-1.0777-2.7394-2.1562-2.6562zm-95.094 7.3438c-1.0785 0.0831-1.8388 1.4109-1.7188 2.9688l4.375 56.844c0.12009 1.5578 1.0777 2.7394 2.1562 2.6562s1.8388-1.4109 1.7188-2.9688l-4.375-56.844c-0.12009-1.5578-1.0777-2.7394-2.1562-2.6562zm80.344 1.5312c-1.0785 0.0831-1.8287 1.6376-1.6875 3.4688l5.1562 66.812c0.14116 1.8312 1.1402 3.2394 2.2188 3.1562s1.8287-1.6063 1.6875-3.4375l-5.1562-66.844c-0.14116-1.8312-1.1402-3.2394-2.2188-3.1562zm-120.22 1.5312c-1.0785 0.0831-1.8701 1.4109-1.75 2.9688l4.4062 56.844c0.12009 1.5578 1.0777 2.7394 2.1562 2.6562s1.8388-1.4109 1.7188-2.9688l-4.375-56.844c-0.12009-1.5578-1.0777-2.7394-2.1562-2.6562zm198.72 1.7188c-1.0785 0.0831-1.8701 1.3796-1.75 2.9375l4.4062 56.875c0.12009 1.5578 1.0777 2.7394 2.1562 2.6562s1.8388-1.4109 1.7188-2.9688l-4.375-56.844c-0.12009-1.5578-1.0777-2.7394-2.1562-2.6562zm-142.94 1.7188c-1.0785 0.0831-1.8287 1.6376-1.6875 3.4688l5.1562 66.812c0.14116 1.8312 1.1402 3.2394 2.2188 3.1562s1.8287-1.6376 1.6875-3.4688l-5.1562-66.812c-0.14116-1.8312-1.1402-3.2394-2.2188-3.1562zm103.06 1.3438c-1.0785 0.0831-1.8701 1.4109-1.75 2.9688l4.375 56.844c0.12009 1.5578 1.109 2.7394 2.1875 2.6562s1.8388-1.4109 1.7188-2.9688l-4.375-56.844c-0.12009-1.5578-1.0777-2.7394-2.1562-2.6562zm-140.22 10.812c-1.0785 0.0831-1.8701 1.4109-1.75 2.9688l4.4062 56.844c0.12009 1.5578 1.0777 2.7394 2.1562 2.6562s1.8388-1.4109 1.7188-2.9688l-4.375-56.844c-0.12009-1.5578-1.0777-2.7394-2.1562-2.6562zm-39.875 3.0625c-1.0785 0.0831-1.8701 1.4109-1.75 2.9688l4.375 56.844c0.12009 1.5578 1.109 2.7394 2.1875 2.6562s1.8388-1.3796 1.7188-2.9375l-4.375-56.875c-0.12009-1.5578-1.0777-2.7394-2.1562-2.6562zm-49.969 21.625c-1.0785 0.0831-1.8701 1.3796-1.75 2.9375l4.4062 56.844c0.12009 1.5578 1.0777 2.7706 2.1562 2.6875s1.8388-1.4109 1.7188-2.9688l-4.375-56.844c-0.12009-1.5578-1.0777-2.7394-2.1562-2.6562zm-39.875 3.0625c-1.0785 0.0831-1.8701 1.4109-1.75 2.9688l4.375 56.844c0.12009 1.5578 1.109 2.7394 2.1875 2.6562s1.8388-1.4109 1.7188-2.9688l-4.375-56.844c-0.12009-1.5578-1.0777-2.7394-2.1562-2.6562zm456.03 3.4062c-1.0785 0.0831-1.8297 1.6239-1.6875 3.4688l5.1875 67.344c0.14221 1.8448 1.1402 3.2394 2.2188 3.1562s1.8297-1.6239 1.6875-3.4688l-5.1875-67.312c-0.14221-1.8448-1.1402-3.2706-2.2188-3.1875zm-80.156 0.9375c-1.0785 0.0831-1.8287 1.6376-1.6875 3.4688l5.1562 66.812c0.14116 1.8312 1.109 3.2394 2.1875 3.1562s1.8287-1.6376 1.6875-3.4688l-5.1562-66.812c-0.14116-1.8312-1.109-3.2394-2.1875-3.1562zm60.844 0.5625c-1.0785 0.0831-1.8297 1.6239-1.6875 3.4688l5.1875 67.312c0.14221 1.8448 1.1402 3.2706 2.2188 3.1875s1.8297-1.6239 1.6875-3.4688l-5.1875-67.344c-0.14221-1.8448-1.1402-3.2394-2.2188-3.1562zm-531.81 2.4062c-1.0785 0.0831-1.8701 1.4109-1.75 2.9688l4.4062 56.844c0.12009 1.5578 1.0777 2.7706 2.1562 2.6875s1.8388-1.4109 1.7188-2.9688l-4.375-56.844c-0.12009-1.5578-1.0777-2.7706-2.1562-2.6875zm431.09 0.09375c-1.0785 0.0831-1.8287 1.6376-1.6875 3.4688l5.125 66.812c0.14116 1.8312 1.1402 3.2394 2.2188 3.1562s1.8287-1.6063 1.6875-3.4375l-5.1562-66.844c-0.14116-1.8312-1.109-3.2394-2.1875-3.1562zm-350.75 1.4688c-1.0785 0.0831-1.8287 1.6376-1.6875 3.4688l5.1562 66.812c0.14116 1.8312 1.109 3.2394 2.1875 3.1562s1.8287-1.6376 1.6875-3.4688l-5.125-66.812c-0.14116-1.8312-1.1402-3.2394-2.2188-3.1562zm-120.25 1.5312c-1.0785 0.0831-1.8388 1.4109-1.7188 2.9688l4.375 56.844c0.12009 1.5578 1.109 2.7394 2.1875 2.6562s1.8388-1.4109 1.7188-2.9688l-4.375-56.844c-0.12009-1.5578-1.109-2.7394-2.1875-2.6562zm198.72 1.6875c-1.0785 0.0831-1.8388 1.4109-1.7188 2.9688l4.375 56.844c0.12009 1.5578 1.109 2.7394 2.1875 2.6562s1.8388-1.3796 1.7188-2.9375l-4.375-56.875c-0.12009-1.5578-1.109-2.7394-2.1875-2.6562zm-142.91 1.75c-1.0785 0.0831-1.8287 1.6063-1.6875 3.4375l5.1562 66.844c0.14116 1.8312 1.109 3.2394 2.1875 3.1562s1.8287-1.6376 1.6875-3.4688l-5.125-66.812c-0.14116-1.8312-1.1402-3.2394-2.2188-3.1562zm103.03 1.3438c-1.0785 0.0831-1.8388 1.3796-1.7188 2.9375l4.375 56.875c0.12009 1.5578 1.0777 2.7394 2.1562 2.6562s1.8701-1.4109 1.75-2.9688l-4.4062-56.844c-0.12009-1.5578-1.0777-2.7394-2.1562-2.6562zm456.06 3.4062c-1.0785 0.0831-1.8297 1.6239-1.6875 3.4688l5.1875 67.312c0.14221 1.8448 1.109 3.2706 2.1875 3.1875s1.861-1.6239 1.7188-3.4688l-5.2188-67.312c-0.14221-1.8448-1.109-3.2706-2.1875-3.1875zm-64.438 4.9688c-1.0785 0.0831-1.8297 1.6239-1.6875 3.4688l5.1875 67.312c0.14221 1.8448 1.109 3.2706 2.1875 3.1875s1.861-1.6239 1.7188-3.4688l-5.2188-67.344c-0.14221-1.8448-1.109-3.2394-2.1875-3.1562zm-531.84 2.4375c-1.0785 0.0831-1.8388 1.3796-1.7188 2.9375l4.375 56.844c0.12009 1.5578 1.109 2.7706 2.1875 2.6875s1.8388-1.4109 1.7188-2.9688l-4.375-56.844c-0.12009-1.5578-1.109-2.7394-2.1875-2.6562zm-39.875 3.0625c-1.0785 0.0831-1.8388 1.4109-1.7188 2.9688l4.375 56.844c0.12009 1.5578 1.0777 2.7394 2.1562 2.6562s1.8701-1.4109 1.75-2.9688l-4.375-56.844c-0.12009-1.5578-1.109-2.7394-2.1875-2.6562zm471.81 3.8125c-1.0785 0.0831-1.8287 1.6376-1.6875 3.4688l5.125 66.812c0.14116 1.8312 1.1402 3.2394 2.2188 3.1562s1.8287-1.6063 1.6875-3.4375l-5.1562-66.844c-0.14116-1.8312-1.109-3.2394-2.1875-3.1562zm-39.906 3.0938c-1.0785 0.0831-1.8287 1.6063-1.6875 3.4375l5.1562 66.844c0.14116 1.8312 1.1402 3.2394 2.2188 3.1562s1.8287-1.6376 1.6875-3.4688l-5.1562-66.812c-0.14116-1.8312-1.1402-3.2394-2.2188-3.1562zm-60.031 9.875c-1.0785 0.0831-1.8297 1.6239-1.6875 3.4688l5.1875 67.312c0.14221 1.8448 1.109 3.2706 2.1875 3.1875s1.861-1.6239 1.7188-3.4688l-5.2188-67.344c-0.14221-1.8448-1.109-3.2394-2.1875-3.1562zm-80.156 0.9375c-1.0785 0.0831-1.8287 1.6063-1.6875 3.4375l5.125 66.844c0.14116 1.8312 1.1402 3.2394 2.2188 3.1562s1.8287-1.6376 1.6875-3.4688l-5.1562-66.812c-0.14116-1.8312-1.109-3.2394-2.1875-3.1562zm60.844 0.53125c-1.0785 0.0831-1.8297 1.6552-1.6875 3.5l5.1875 67.312c0.14221 1.8448 1.109 3.2706 2.1875 3.1875s1.8297-1.6552 1.6875-3.5l-5.1875-67.312c-0.14221-1.8448-1.109-3.2706-2.1875-3.1875zm-100.75 2.5312c-1.0785 0.0831-1.8287 1.6376-1.6875 3.4688l5.1562 66.812c0.14116 1.8312 1.1402 3.2394 2.2188 3.1562s1.8287-1.6376 1.6875-3.4688l-5.1562-66.812c-0.14116-1.8312-1.1402-3.2394-2.2188-3.1562zm143.94 11.156c-1.0785 0.0831-1.8297 1.6552-1.6875 3.5l5.1875 67.312c0.14221 1.8448 1.109 3.2706 2.1875 3.1875s1.8297-1.6552 1.6875-3.5l-5.1875-67.312c-0.14221-1.8448-1.109-3.2706-2.1875-3.1875zm-64.438 4.9688c-1.0785 0.0831-1.8297 1.6552-1.6875 3.5l5.1875 67.312c0.14221 1.8448 1.109 3.2706 2.1875 3.1875s1.8297-1.6552 1.6875-3.5l-5.1875-67.312c-0.14221-1.8448-1.109-3.2706-2.1875-3.1875zm325.31 18.281c-1.0785 0.0831-1.8297 1.6239-1.6875 3.4688l5.1875 67.312c0.14221 1.8448 1.1402 3.2706 2.2188 3.1875s1.8297-1.6239 1.6875-3.4688l-5.1875-67.344c-0.14221-1.8448-1.1402-3.2394-2.2188-3.1562zm-430.91 2.375c-1.0785 0.0831-1.8287 1.6376-1.6875 3.4688l5.1562 66.812c0.14116 1.8312 1.109 3.2394 2.1875 3.1562s1.8599-1.6376 1.7188-3.4688l-5.1562-66.812c-0.14116-1.8312-1.1402-3.2394-2.2188-3.1562zm-39.875 3.0938c-1.0785 0.0831-1.8287 1.6063-1.6875 3.4375l5.1562 66.812c0.14116 1.8312 1.109 3.2394 2.1875 3.1562s1.8287-1.6063 1.6875-3.4375l-5.125-66.812c-0.14116-1.8312-1.1402-3.2394-2.2188-3.1562zm375.69 1.8438c-1.0785 0.0831-1.8297 1.6239-1.6875 3.4688l5.1875 67.344c0.14221 1.8448 1.1402 3.2394 2.2188 3.1562s1.8297-1.6239 1.6875-3.4688l-5.1875-67.312c-0.14221-1.8448-1.1402-3.2706-2.2188-3.1875zm57.562 0.0937c-1.0785 0.0831-1.8234 1.894-1.6562 4.0625l6.125 79.125c0.16716 2.1685 1.1402 3.8644 2.2188 3.7812s1.8234-1.894 1.6562-4.0625l-6.0938-79.125c-0.16716-2.1685-1.1715-3.8644-2.25-3.7812zm-19.312 1.5c-1.0785 0.0831-1.8234 1.894-1.6562 4.0625l6.0938 79.125c0.16716 2.1685 1.1715 3.8331 2.25 3.75s1.8234-1.894 1.6562-4.0625l-6.0938-79.125c-0.16716-2.1685-1.1715-3.8331-2.25-3.75zm-78.125 1.4688c-1.0785 0.0831-1.8297 1.6552-1.6875 3.5l5.1875 67.312c0.14221 1.8448 1.1402 3.2706 2.2188 3.1875s1.8297-1.6552 1.6875-3.5l-5.1875-67.312c-0.14221-1.8448-1.1402-3.2706-2.2188-3.1875zm-395.84 4.9375c-1.0785 0.0831-1.8297 1.6552-1.6875 3.5l5.1875 67.312c0.14221 1.8448 1.109 3.2706 2.1875 3.1875s1.8297-1.6552 1.6875-3.5l-5.1875-67.312c-0.14221-1.8448-1.109-3.2706-2.1875-3.1875zm-80.188 0.9375c-1.0785 0.0831-1.8287 1.6376-1.6875 3.4688l5.1562 66.812c0.14116 1.8312 1.109 3.2394 2.1875 3.1562s1.8599-1.6063 1.7188-3.4375l-5.1562-66.844c-0.14116-1.8312-1.1402-3.2394-2.2188-3.1562zm60.875 0.5625c-1.0785 0.0831-1.861 1.6239-1.7188 3.4688l5.2188 67.344c0.14221 1.8448 1.109 3.2394 2.1875 3.1562s1.8297-1.6239 1.6875-3.4688l-5.1875-67.312c-0.14221-1.8448-1.109-3.2706-2.1875-3.1875zm-100.75 2.5312c-1.0785 0.0831-1.8287 1.6063-1.6875 3.4375l5.1562 66.844c0.14116 1.8312 1.109 3.2394 2.1875 3.1562s1.8287-1.6376 1.6875-3.4688l-5.125-66.812c-0.14116-1.8312-1.1402-3.2394-2.2188-3.1562zm637.22 3.25c-1.0785 0.0831-1.8234 1.894-1.6562 4.0625l6.0938 79.125c0.16716 2.1685 1.1715 3.8644 2.25 3.7812s1.8234-1.894 1.6562-4.0625l-6.0938-79.156c-0.16716-2.1685-1.1715-3.8331-2.25-3.75zm-102.69 3.375c-1.0785 0.0831-1.8297 1.6552-1.6875 3.5l5.1875 67.312c0.14221 1.8448 1.1402 3.2706 2.2188 3.1875s1.8297-1.6552 1.6875-3.5l-5.1875-67.312c-0.14221-1.8448-1.1402-3.2706-2.2188-3.1875zm38.25 1.5938c-1.0785 0.0831-1.8234 1.894-1.6562 4.0625l6.0938 79.125c0.16716 2.1685 1.1715 3.8644 2.25 3.7812s1.8234-1.894 1.6562-4.0625l-6.0938-79.156c-0.16716-2.1685-1.1715-3.8331-2.25-3.75zm-78.125 1.5c-1.0785 0.0831-1.8297 1.6239-1.6875 3.4688l5.1875 67.313c0.14221 1.8448 1.109 3.2706 2.1875 3.1875s1.861-1.6239 1.7188-3.4688l-5.2188-67.344c-0.14221-1.8448-1.109-3.2394-2.1875-3.1562zm-350.75 1.4375c-1.0785 0.0831-1.8297 1.6239-1.6875 3.4688l5.1875 67.344c0.14221 1.8448 1.1402 3.2394 2.2188 3.1562s1.8297-1.6239 1.6875-3.4688l-5.1875-67.312c-0.14221-1.8448-1.1402-3.2706-2.2188-3.1875zm-64.438 4.9688c-1.0785 0.0831-1.8297 1.6239-1.6875 3.4688l5.1875 67.344c0.14221 1.8448 1.1402 3.2394 2.2188 3.1562s1.8297-1.6239 1.6875-3.4688l-5.1875-67.312c-0.14221-1.8448-1.1402-3.2706-2.2188-3.1875zm370.88 3.875c-1.0785 0.0831-1.8297 1.6239-1.6875 3.4688l5.1875 67.312c0.14221 1.8448 1.1402 3.2706 2.2188 3.1875s1.8297-1.6239 1.6875-3.4688l-5.1875-67.312c-0.14221-1.8448-1.1402-3.2706-2.2188-3.1875zm-39.875 3.0625c-1.0785 0.0831-1.8297 1.6552-1.6875 3.5l5.1875 67.312c0.0711 0.92242 0.35572 1.7358 0.75 2.3125h2.625c0.39326-0.64865 0.61124-1.5873 0.53125-2.625l-5.2188-67.312c-0.14221-1.8448-1.109-3.2706-2.1875-3.1875zm-95.094 7.3438c-1.0785 0.0831-1.8297 1.6239-1.6875 3.4688l4.8125 62.312h3.9062l-4.8125-62.594c-0.14221-1.8448-1.1402-3.2706-2.2188-3.1875zm57.562 0.0937c-1.0785 0.0831-1.8234 1.894-1.6562 4.0625l4.75 61.625h3.9375l-4.7812-61.938c-0.16716-2.1685-1.1715-3.8331-2.25-3.75zm-19.312 1.4688c-1.0785 0.0831-1.8234 1.9253-1.6562 4.0938l4.625 60.125h3.9375l-4.6562-60.438c-0.16716-2.1685-1.1715-3.8644-2.25-3.7812zm-78.125 1.5c-1.0785 0.0831-1.8297 1.6552-1.6875 3.5l4.5625 59.219h3.9062l-4.5938-59.531c-0.14221-1.8448-1.109-3.2706-2.1875-3.1875zm198.72 1.7188c-1.0785 0.0831-1.8297 1.6239-1.6875 3.4688l4.4375 57.531h3.9062l-4.4688-57.844c-0.14221-1.8448-1.109-3.2394-2.1875-3.1562zm-39.875 3.0625c-1.0785 0.0831-1.8297 1.6239-1.6875 3.4688l4.1875 54.469h3.9062l-4.2188-54.75c-0.14221-1.8448-1.109-3.2706-2.1875-3.1875zm-37.562 7.4375c-1.0785 0.0831-1.7922 1.894-1.625 4.0625l3.5625 46.438h3.9062l-3.5938-46.75c-0.16716-2.1685-1.1715-3.8331-2.25-3.75zm-102.66 3.375c-1.0785 0.0831-1.8297 1.6239-1.6875 3.4688l3.375 43.656h3.875l-3.375-43.938c-0.14221-1.8448-1.109-3.2706-2.1875-3.1875zm38.219 1.5938c-1.0785 0.0831-1.7922 1.894-1.625 4.0625l3.1875 41.469h3.9062l-3.2188-41.781c-0.16716-2.1685-1.1715-3.8331-2.25-3.75zm-78.094 1.4688c-1.0785 0.0831-1.8297 1.6552-1.6875 3.5l3.125 40.562h3.9062l-3.1562-40.875c-0.14221-1.8448-1.109-3.2706-2.1875-3.1875zm403.44 16.781c-1.0785 0.0831-1.8234 1.894-1.6562 4.0625l1.6562 21.562c1.1586-1.0978 1.9062-2.6455 1.9062-4.375v-19.188c-0.41661-1.2707-1.1359-2.1219-1.9062-2.0625zm-453.41 4.8125c-1.0785 0.0831-1.8297 1.6552-1.6875 3.5l1.4688 18.969h3.9062l-1.5-19.281c-0.14221-1.8448-1.109-3.2706-2.1875-3.1875zm358.31 2.5c-1.0785 0.0831-1.8234 1.894-1.6562 4.0625l1.2188 15.906h3.9375l-1.25-16.188c-0.16716-2.1685-1.1715-3.8644-2.25-3.7812zm-398.19 0.59375c-1.0785 0.0831-1.8297 1.6239-1.6875 3.4688l1.2188 15.906h3.9062l-1.25-16.188c-0.14221-1.8448-1.109-3.2706-2.1875-3.1875zm358.31 2.5c-1.0785 0.0831-1.8234 1.894-1.6562 4.0625l1 12.812h3.9062l-1-13.125c-0.16716-2.1685-1.1715-3.8331-2.25-3.75zm-453.41 4.8125c-1.0785 0.0831-1.8297 1.6552-1.6875 3.5l0.65625 8.5625h3.9062l-0.6875-8.875c-0.14221-1.8448-1.109-3.2706-2.1875-3.1875zm57.531 0.0937c-1.0785 0.0831-1.7922 1.9253-1.625 4.0938l0.59375 7.875h3.9062l-0.625-8.1875c-0.16716-2.1685-1.1715-3.8644-2.25-3.7812zm-19.312 1.5c-1.0785 0.0831-1.7922 1.894-1.625 4.0625l0.5 6.4062h3.875l-0.5-6.6875c-0.16716-2.1685-1.1715-3.8644-2.25-3.7812zm-78.094 1.5c-1.0785 0.0831-1.861 1.6239-1.7188 3.4688l0.4375 5.5h3.9062l-0.4375-5.7812c-0.14221-1.8448-1.109-3.2706-2.1875-3.1875zm198.69 1.6875c-1.0785 0.0831-1.8297 1.6552-1.6875 3.5l0.28125 3.7812h3.9375l-0.3125-4.0938c-0.14221-1.8448-1.1402-3.2706-2.2188-3.1875zm-39.875 3.0938c-1.0785 0.0831-1.8297 1.6239-1.6875 3.4688l0.0625 0.71875h3.9375l-0.0937-1.0312c-0.14221-1.8448-1.1402-3.2394-2.2188-3.1562zm353.09 2.875c-0.55407 0.0427-1.013 0.54362-1.3125 1.3125h2.9062c-0.42315-0.83593-0.99134-1.3589-1.5938-1.3125z" fill="#fff" opacity=".7"/>
 </g>
</svg>
